<?xml version="1.0" encoding="UTF-8"?><svg id="a" xmlns="http://www.w3.org/2000/svg" viewBox="0 0 16 16"><defs><style>.b{fill:#fff;}</style></defs><path class="b" d="M12.6,1.34H3.4c-.54,0-.98.44-.98.98v10.82c0,.41.16.79.44,1.07.28.29.67.45,1.08.45h9.2c.24,0,.44-.2.44-.44V2.32c0-.54-.44-.98-.98-.98ZM3.3,2.32c0-.06.05-.1.1-.1h.64v9.4h-.1c-.11,0-.22.01-.32.04-.03,0-.06.02-.1.03-.07.02-.14.04-.2.07,0,0-.02,0-.02,0V2.32ZM12.7,13.78H3.94c-.17,0-.33-.07-.46-.19-.12-.12-.19-.28-.19-.45,0-.36.29-.64.64-.64h8.76v1.29ZM12.7,11.62h-7.78V2.22h7.68c.06,0,.1.05.1.1v9.3Z"/><path class="b" d="M11.52,3.5h-5.41c-.24,0-.44.2-.44.44v2.71c0,.24.2.44.44.44h5.41c.24,0,.44-.2.44-.44v-2.71c0-.24-.2-.44-.44-.44ZM11.08,6.21h-4.53v-1.83h4.53v1.83Z"/></svg>