<?xml version="1.0" encoding="UTF-8"?><svg id="a" xmlns="http://www.w3.org/2000/svg" viewBox="0 0 16 16"><defs><style>.b{fill:#fff;}</style></defs><path class="b" d="M5.83,8.78c.11-.15.26-.22.46-.22.18,0,.31.04.39.12.09.08.14.22.16.42v.09h.74v-.11c-.05-.36-.18-.65-.41-.85-.23-.2-.53-.3-.89-.3-.27,0-.52.07-.72.2-.21.13-.37.32-.48.56-.11.23-.16.51-.16.81v.29c0,.3.06.56.17.79.11.23.27.41.47.54.2.13.44.19.7.19.38,0,.68-.1.91-.3.23-.2.37-.48.4-.84v-.11s-.72,0-.72,0v.08c-.04.2-.09.34-.18.41-.09.08-.22.12-.41.12-.2,0-.34-.07-.45-.22-.11-.16-.16-.4-.16-.71v-.27c0-.31.06-.54.18-.7Z"/><path class="b" d="M9.74,9.56c-.15-.1-.35-.18-.6-.25-.23-.07-.39-.14-.49-.21-.08-.06-.12-.12-.12-.2,0-.11.03-.18.11-.24.08-.06.2-.09.35-.09.16,0,.29.04.37.11.08.07.12.17.12.31v.1h.73v-.1c0-.2-.05-.38-.16-.54-.11-.16-.25-.29-.44-.37-.18-.09-.39-.13-.62-.13-.35,0-.63.09-.85.26-.23.18-.34.41-.34.69,0,.32.16.58.47.78.15.1.36.18.62.26.29.09.43.16.49.21.07.06.11.13.11.24,0,.1-.03.17-.1.22-.08.06-.2.09-.36.09-.19,0-.34-.04-.44-.12-.09-.08-.14-.19-.14-.33v-.1h-.73v.1c0,.21.06.4.17.57.11.16.27.29.48.38.2.09.42.13.66.13.36,0,.65-.08.87-.25.22-.17.33-.41.33-.69,0-.18-.04-.33-.11-.47-.08-.13-.2-.25-.35-.35Z"/><path class="b" d="M11.62,7.93c-.35,0-.63.09-.85.26-.23.18-.34.41-.34.69,0,.32.16.58.47.78.16.1.36.18.62.26.29.09.43.16.49.21.07.06.11.13.11.24,0,.1-.03.17-.11.22-.08.06-.2.09-.36.09-.19,0-.34-.04-.44-.12-.09-.08-.14-.19-.14-.33v-.1h-.73v.1c0,.21.06.41.18.57.11.16.27.29.48.38.2.09.42.13.66.13.36,0,.65-.08.87-.25.22-.17.33-.41.33-.69,0-.18-.04-.33-.11-.47-.08-.13-.2-.25-.35-.35-.15-.1-.35-.18-.6-.25-.23-.07-.39-.14-.49-.21-.08-.06-.12-.12-.12-.2,0-.11.03-.18.11-.24.08-.06.2-.09.35-.09.17,0,.29.04.37.11.08.07.12.17.12.31v.1h.73v-.1c0-.2-.05-.38-.16-.54s-.25-.29-.44-.37c-.18-.09-.39-.13-.62-.13Z"/><path class="b" d="M14.02,6.21h-1.18v-1.73s0-.04-.01-.06c0-.03,0-.06-.02-.09-.01-.03-.03-.05-.04-.08-.01-.02-.02-.04-.03-.05l-2.74-3.25s-.01,0-.01-.01c-.02-.02-.05-.04-.08-.06-.02-.01-.04-.03-.06-.04-.03-.01-.05-.02-.08-.02-.03,0-.06-.02-.09-.02,0,0-.01,0-.02,0H1.98c-.24,0-.44.2-.44.44v13.53c0,.24.2.44.44.44h10.42c.24,0,.44-.2.44-.44v-1.73h1.18c.24,0,.44-.2.44-.44v-5.95c0-.24-.2-.44-.44-.44ZM10.09,2.43l1.36,1.61h-1.36v-1.61ZM11.96,14.33H2.42V1.67h6.8v2.81c0,.24.2.44.44.44h2.3v1.29H3.74c-.24,0-.44.2-.44.44v5.95c0,.24.2.44.44.44h8.22v1.29ZM13.58,12.16H4.2v-5.07h9.38v5.07Z"/></svg>