<?xml version="1.0" encoding="UTF-8"?><svg id="a" xmlns="http://www.w3.org/2000/svg" height="16" width="16" viewBox="0 0 16 16"><defs><style>.b{fill:#fff;}</style></defs><path class="b" d="M13.5,9.55h-6.66l2.48-3.1h4.18c.25,0,.45-.2.45-.45s-.2-.45-.45-.45h-3.46l1.81-2.27c.16-.19.12-.48-.07-.63-.19-.16-.48-.12-.63.07l-2.26,2.83H2.5c-.25,0-.45.2-.45.45s.2.45.45.45h5.66l-2.48,3.1h-3.18c-.25,0-.45.2-.45.45s.2.45.45.45h2.46l-1.81,2.27c-.16.19-.12.48.07.63.08.07.18.1.28.1.13,0,.26-.06.35-.17l2.26-2.83h7.38c.25,0,.45-.2.45-.45s-.2-.45-.45-.45Z"/></svg>