<?xml version="1.0" encoding="UTF-8"?><svg id="a" xmlns="http://www.w3.org/2000/svg" height="16" width="16" viewBox="0 0 16 16"><defs><style>.b{fill:#fff;}</style></defs><path class="b" d="M3.24,3.65h.92l.18.53h.56l-.96-2.55h-.49l-.95,2.55h.56l.18-.53ZM3.7,2.27l.32.96h-.64l.32-.96Z"/><path class="b" d="M13.11,3.98c.16-.13.24-.31.24-.56,0-.14-.04-.27-.11-.36-.08-.1-.18-.17-.31-.2.11-.04.2-.11.27-.21.06-.1.1-.21.1-.33,0-.23-.08-.4-.24-.52-.16-.12-.4-.18-.7-.18h-.89v2.55h.99c.29,0,.51-.07.67-.19ZM11.98,2.05h.37c.14,0,.25.03.32.08.07.05.1.13.1.25,0,.21-.13.31-.4.32h-.39v-.64ZM11.98,3.75v-.69h.48c.24,0,.36.12.36.36,0,.1-.04.19-.1.24s-.17.09-.29.09h-.45Z"/><path class="b" d="M6.66.3H.75c-.25,0-.45.2-.45.45v14.5c0,.25.2.45.45.45h5.91c.25,0,.45-.2.45-.45V.75c0-.25-.2-.45-.45-.45ZM6.21,1.2v3.4H1.2V1.2h5.01ZM1.2,14.8V5.5h5.01v9.3H1.2Z"/><path class="b" d="M15.25.3h-5.91c-.25,0-.45.2-.45.45v14.5c0,.25.2.45.45.45h5.91c.25,0,.45-.2.45-.45V.75c0-.25-.2-.45-.45-.45ZM14.8,1.2v3.4h-5.01V1.2h5.01ZM9.79,14.8V5.5h5.01v9.3h-5.01Z"/><path class="b" d="M5.05,6.74h-2.68c-.25,0-.45.2-.45.45v2.15c0,.25.2.45.45.45h2.68c.25,0,.45-.2.45-.45v-2.15c0-.25-.2-.45-.45-.45ZM4.6,8.89h-1.78v-1.25h1.78v1.25Z"/><path class="b" d="M13.64,10.5h-2.68c-.25,0-.45.2-.45.45v2.15c0,.25.2.45.45.45h2.68c.25,0,.45-.2.45-.45v-2.15c0-.25-.2-.45-.45-.45ZM13.19,12.65h-1.78v-1.25h1.78v1.25Z"/><path class="b" d="M5.05,11.04h-2.68c-.25,0-.45.2-.45.45s.2.45.45.45h2.68c.25,0,.45-.2.45-.45s-.2-.45-.45-.45Z"/><path class="b" d="M5.05,12.65h-2.68c-.25,0-.45.2-.45.45s.2.45.45.45h2.68c.25,0,.45-.2.45-.45s-.2-.45-.45-.45Z"/><path class="b" d="M13.64,6.74h-2.68c-.25,0-.45.2-.45.45s.2.45.45.45h2.68c.25,0,.45-.2.45-.45s-.2-.45-.45-.45Z"/><path class="b" d="M13.64,8.36h-2.68c-.25,0-.45.2-.45.45s.2.45.45.45h2.68c.25,0,.45-.2.45-.45s-.2-.45-.45-.45Z"/></svg>