<?xml version="1.0" encoding="UTF-8"?><svg id="a" xmlns="http://www.w3.org/2000/svg" viewBox="0 0 16 16"><defs><style>.b{fill:#fff;}</style></defs><path class="b" d="M14.22,1.34H1.78c-.24,0-.44.2-.44.44v3.25c0,.24.2.44.44.44h12.45c.24,0,.44-.2.44-.44V1.78c0-.24-.2-.44-.44-.44ZM13.78,4.59H2.22v-2.37h11.57v2.37Z"/><path class="b" d="M3.4,3.84h8.66c.24,0,.44-.2.44-.44s-.2-.44-.44-.44H3.4c-.24,0-.44.2-.44.44s.2.44.44.44Z"/><path class="b" d="M3.4,8.37c-.24,0-.44.2-.44.44s.2.44.44.44h4.87c.24,0,.44-.2.44-.44s-.2-.44-.44-.44H3.4Z"/><path class="b" d="M14.22,6.75H1.78c-.24,0-.44.2-.44.44v3.25c0,.24.2.44.44.44h6.49c.24,0,.44-.2.44-.44s-.2-.44-.44-.44H2.22v-2.37h11.57v1.73c0,.24.2.44.44.44s.44-.2.44-.44v-2.16c0-.24-.2-.44-.44-.44Z"/><path class="b" d="M10.72,9.02c-.13-.11-.31-.14-.47-.07-.16.07-.25.23-.25.4v4.87c0,.2.14.38.34.43.03,0,.07.01.1.01.16,0,.32-.09.39-.24l.93-1.87,2.38.48c.2.04.39-.06.48-.24.09-.18.04-.39-.11-.52l-3.79-3.25ZM11.6,11.63c-.2-.04-.39.06-.48.23l-.25.5v-2.06l1.79,1.54-1.06-.21Z"/></svg>