<?xml version="1.0" encoding="UTF-8"?><svg id="a" xmlns="http://www.w3.org/2000/svg" viewBox="0 0 16 16"><defs><style>.b{fill:#fff;}</style></defs><path class="b" d="M3.94,3.3h1.62c.24,0,.44-.2.44-.44s-.2-.44-.44-.44h-1.62c-.24,0-.44.2-.44.44s.2.44.44.44Z"/><path class="b" d="M7.19,3.3h4.87c.24,0,.44-.2.44-.44s-.2-.44-.44-.44h-4.87c-.24,0-.44.2-.44.44s.2.44.44.44Z"/><path class="b" d="M10.44,13.58h1.62c.24,0,.44-.2.44-.44s-.2-.44-.44-.44h-1.62c-.24,0-.44.2-.44.44s.2.44.44.44Z"/><path class="b" d="M3.94,13.58h4.87c.24,0,.44-.2.44-.44s-.2-.44-.44-.44H3.94c-.24,0-.44.2-.44.44s.2.44.44.44Z"/><path class="b" d="M13.68.8H2.32c-.24,0-.44.2-.44.44v13.53c0,.24.2.44.44.44h11.36c.24,0,.44-.2.44-.44V1.24c0-.24-.2-.44-.44-.44ZM13.24,14.33H2.76v-2.37h10.49v2.37ZM13.24,11.08H2.76v-6.16h10.49v6.16ZM13.24,4.04H2.76V1.67h10.49v2.37Z"/></svg>