<?xml version="1.0" encoding="UTF-8"?><svg id="a" xmlns="http://www.w3.org/2000/svg" height="16" width="16" viewBox="0 0 16 16"><defs><style>.b{fill:#fff;}</style></defs><path class="b" d="M11.03,9.47s-.01-.03-.02-.04-.03-.01-.04-.02c-.03-.03-.07-.06-.11-.07-.11-.05-.23-.05-.34,0-.04.02-.08.04-.11.07-.01,0-.03.01-.04.02l-1.5,1.5c-.18.18-.18.46,0,.64.09.09.2.13.32.13s.23-.04.32-.13l.73-.73v1.16c0,.99-.7,1.8-1.55,1.8s-1.55-.81-1.55-1.8v-7.11c.79-.2,1.38-.91,1.38-1.76,0-1.01-.82-1.83-1.83-1.83s-1.83.82-1.83,1.83c0,.85.59,1.56,1.38,1.76v7.36c0,.06.01.13.04.18.19,1.28,1.19,2.27,2.41,2.27,1.35,0,2.45-1.21,2.45-2.7v-2.25c0-.06-.01-.12-.03-.17-.02-.04-.04-.08-.07-.11ZM5.76,3.12c0-.51.42-.92.92-.92s.92.42.92.92-.42.92-.92.92-.92-.42-.92-.92Z"/></svg>