<?xml version="1.0" encoding="UTF-8"?><svg id="a" xmlns="http://www.w3.org/2000/svg" height="16" width="16" viewBox="0 0 16 16"><defs><style>.b{fill:#fff;}</style></defs><path class="b" d="M7.5,5.55h-2c-.25,0-.45.2-.45.45s.2.45.45.45h2c.25,0,.45-.2.45-.45s-.2-.45-.45-.45Z"/><path class="b" d="M7.5,11.55h-2c-.25,0-.45.2-.45.45s.2.45.45.45h2c.25,0,.45-.2.45-.45s-.2-.45-.45-.45Z"/><path class="b" d="M3.82,5.68s-.09-.07-.15-.1c-.11-.04-.23-.04-.34,0-.06.03-.11.06-.15.1s-.07.09-.1.15c-.02.05-.03.11-.03.17,0,.12.05.23.13.32.09.08.2.13.32.13s.23-.05.32-.13c.08-.09.13-.2.13-.32,0-.06,0-.12-.04-.17-.02-.06-.05-.11-.09-.15Z"/><path class="b" d="M3.82,7.68s-.09-.07-.15-.1c-.11-.04-.23-.04-.34,0-.06.03-.11.06-.15.1s-.07.09-.1.15c-.02.05-.03.11-.03.17,0,.12.05.23.13.32.04.04.09.07.15.1.05.02.11.03.17.03.12,0,.23-.05.32-.13.08-.09.13-.2.13-.32,0-.06,0-.12-.03-.17-.03-.06-.06-.11-.1-.15Z"/><path class="b" d="M3.82,9.68c-.17-.17-.47-.17-.64,0-.04.04-.07.09-.1.15-.02.05-.03.11-.03.17,0,.12.05.23.13.32.09.08.2.13.32.13s.23-.05.32-.13c.08-.09.13-.2.13-.32,0-.06,0-.12-.03-.17-.03-.06-.06-.11-.1-.15Z"/><path class="b" d="M3.67,11.58c-.11-.04-.23-.04-.34,0-.06.03-.11.06-.15.1s-.07.09-.1.15c-.02.05-.03.11-.03.17,0,.12.05.23.13.32.09.08.2.13.32.13s.23-.05.32-.13c.08-.09.13-.2.13-.32s-.05-.23-.13-.32c-.04-.04-.09-.07-.15-.1Z"/><path class="b" d="M5.5,10.45h1c.25,0,.45-.2.45-.45s-.2-.45-.45-.45h-1c-.25,0-.45.2-.45.45s.2.45.45.45Z"/><path class="b" d="M5.5,8.45h1c.25,0,.45-.2.45-.45s-.2-.45-.45-.45h-1c-.25,0-.45.2-.45.45s.2.45.45.45Z"/><path class="b" d="M11.5,6.05c-.19,0-.37.02-.55.05v-3.6c0-.25-.2-.45-.45-.45h-2.55v-.55c0-.25-.2-.45-.45-.45h-3c-.25,0-.45.2-.45.45v.55H1.5c-.25,0-.45.2-.45.45v12c0,.25.2.45.45.45h9c.25,0,.45-.2.45-.45v-1.6c.18.03.36.05.55.05,1.9,0,3.45-1.55,3.45-3.45s-1.55-3.45-3.45-3.45ZM4.95,1.95h2.1v1.1h-2.1v-1.1ZM10.05,14.05H1.95V2.95h2.1v.55c0,.25.2.45.45.45h3c.25,0,.45-.2.45-.45v-.55h2.1v3.42s-.07.04-.1.06c-.07.03-.13.07-.19.11-.08.05-.17.1-.25.16-.06.04-.12.09-.18.13-.08.06-.15.12-.22.19-.05.05-.1.1-.15.15-.07.07-.13.15-.18.22-.04.06-.09.11-.13.17-.06.08-.1.17-.15.25-.03.06-.07.12-.1.19-.04.09-.08.19-.12.28-.02.06-.05.12-.07.19-.03.11-.06.22-.08.33-.01.06-.03.11-.04.17-.03.17-.04.35-.04.52s.01.35.04.52c0,.06.03.11.04.17.02.11.04.22.08.33.02.07.05.14.08.2.03.09.07.18.11.27.03.07.08.14.11.21.04.08.08.15.13.22.05.07.1.14.15.21.05.06.1.12.15.18.06.07.12.13.19.19.06.05.11.1.17.15.07.06.14.11.22.16.06.04.13.09.2.13.08.04.15.09.23.13.03.02.06.04.1.05v1.42ZM11.5,12.05c-.3,0-.58-.05-.85-.16-1.01-.35-1.7-1.31-1.7-2.39s.68-2.05,1.71-2.4c.26-.1.54-.15.84-.15,1.41,0,2.55,1.14,2.55,2.55s-1.14,2.55-2.55,2.55Z"/><path class="b" d="M12.7,9.05h-.75v-.75c0-.25-.2-.45-.45-.45s-.45.2-.45.45v1.2c0,.25.2.45.45.45h1.2c.25,0,.45-.2.45-.45s-.2-.45-.45-.45Z"/></svg>