<?xml version="1.0" encoding="UTF-8"?><svg id="a" xmlns="http://www.w3.org/2000/svg" height="16" width="16" viewBox="0 0 16 16"><defs><style>.b{fill:#fff;}</style></defs><path class="b" d="M9.59,2.38l-2.08,2.08c-.18.18-.18.46,0,.64s.46.18.64,0l2.08-2.08c.76-.76,1.99-.76,2.75,0,.76.76.76,2,0,2.75l-2.54,2.54c-.76.76-2,.76-2.75,0-.05-.05-.09-.1-.13-.15-.16-.19-.44-.22-.63-.07-.19.16-.22.44-.07.63.06.07.12.14.19.21.56.55,1.28.83,2.01.83s1.46-.28,2.01-.83l2.54-2.54c1.11-1.11,1.11-2.92,0-4.03-1.11-1.11-2.92-1.11-4.03,0Z"/><path class="b" d="M7.94,10.82l-2.16,2.16c-.73.74-2.02.74-2.75,0-.76-.76-.76-2,0-2.75l2.54-2.54c.23-.23.73-.62,1.44-.72,1.16-.16,2.01.58,2.17.73.18.17.47.16.64-.02.17-.18.16-.47-.02-.64-.21-.2-1.35-1.18-2.91-.97-.97.13-1.64.67-1.95.97l-2.54,2.54c-1.11,1.11-1.11,2.92,0,4.03.54.54,1.25.83,2.01.83s1.48-.3,2.01-.83l2.16-2.16c.18-.18.18-.46,0-.64-.17-.18-.46-.18-.64,0Z"/></svg>