<?xml version="1.0" encoding="UTF-8"?><svg id="a" xmlns="http://www.w3.org/2000/svg" height="16" width="16" viewBox="0 0 16 16"><defs><style>.b{fill:#fff;}</style></defs><path class="b" d="M14.68,10.8c.55-1.27.48-2.72-.21-3.93-1.06-1.87-3.26-2.65-5.24-1.96-.38-.74-.96-1.35-1.7-1.77-2.11-1.2-4.8-.46-6,1.64-.69,1.2-.76,2.66-.21,3.93l-.78,1.82c-.07.16-.04.35.08.47.12.13.3.17.47.11l1.69-.6c.13.09.26.18.4.26.67.38,1.42.57,2.17.57.48,0,.96-.1,1.42-.26.02.04.04.09.07.13.58,1.02,1.52,1.75,2.66,2.06.39.11.78.16,1.17.16.75,0,1.5-.2,2.17-.58.14-.08.28-.17.41-.26l1.68.6c.17.06.35.01.47-.11.12-.13.15-.31.08-.47l-.78-1.82ZM6.84,6.85c-.05.09-.09.18-.13.27-.06.13-.13.27-.18.41-.04.1-.06.2-.09.31-.04.14-.08.27-.1.41-.21-.11-.42-.23-.61-.39.35-.47.59-1,.7-1.56.08,0,.15,0,.23,0,.13,0,.26,0,.4-.02l.08-.02v-.66h-1.52v-.51h-.78v.51h-1.51v.7h.7c.12.57.36,1.09.74,1.57-.4.36-.88.56-1.34.72l-.1.04.05.1c.03.06.04.11.06.17.02.1.05.2.12.29l.04.05.06-.02c.6-.16,1.12-.44,1.6-.85.33.27.67.45,1.02.6,0,.01,0,.02,0,.04,0,.11,0,.22.01.34,0,.14.03.28.05.42.02.11.04.23.07.34.02.06.02.13.04.19-.94.3-1.97.2-2.83-.29-.17-.1-.33-.21-.48-.33-.08-.06-.18-.1-.28-.1-.05,0-.1,0-.15.03l-.96.34.46-1.08c.05-.12.05-.25,0-.36-.51-1.05-.47-2.29.1-3.3.96-1.68,3.12-2.27,4.8-1.31.58.33,1.03.79,1.34,1.35-.22.13-.43.28-.62.44-.04.03-.07.07-.1.1-.16.14-.31.29-.44.44-.06.07-.1.15-.16.22-.1.13-.19.26-.27.4ZM5.71,6.31c-.09.37-.24.71-.47,1.04-.23-.29-.39-.63-.49-1.04h.96ZM13.3,11.7c-.15-.05-.31-.02-.42.07-.15.12-.31.23-.48.33-.82.47-1.76.59-2.67.34-.91-.25-1.66-.84-2.13-1.65-.07-.13-.14-.26-.19-.4-.68-1.63-.03-3.52,1.52-4.4.09-.05.17-.1.28-.14.48-.22.98-.32,1.47-.32,1.22,0,2.4.64,3.04,1.78.58,1.02.61,2.25.1,3.3-.06.12-.06.25,0,.37l.46,1.07-.96-.34Z"/><path class="b" d="M10.29,7.19l-1.32,3.49h.81l.27-.77h1.14l.27.77h.81l-1.32-3.49h-.65ZM10.27,9.26l.34-.97.34.97h-.68Z"/></svg>