<?xml version="1.0" encoding="UTF-8"?><svg id="a" xmlns="http://www.w3.org/2000/svg" height="16" width="16" viewBox="0 0 16 16"><defs><style>.b{fill:#fff;}</style></defs><path class="b" d="M13.07,5.93c-.18-.18-.46-.18-.64,0s-.18.46,0,.64l.98.98h-2.59l-3.87-3.39c-.08-.07-.19-.11-.3-.11H1.5c-.25,0-.45.2-.45.45s.2.45.45.45h4.99l3.49,3.05-3.49,3.05H1.5c-.25,0-.45.2-.45.45s.2.45.45.45h5.16c.11,0,.21-.04.3-.11l3.87-3.39h2.59l-.98.98c-.18.18-.18.46,0,.64.09.09.2.13.32.13s.23-.04.32-.13l1.75-1.75c.18-.18.18-.46,0-.64l-1.75-1.75Z"/></svg>