<?xml version="1.0" encoding="UTF-8"?><svg id="a" xmlns="http://www.w3.org/2000/svg" viewBox="0 0 16 16"><defs><style>.b{fill:#fff;}</style></defs><path class="b" d="M12.97,7.35c-.08-.13-.22-.2-.37-.2H3.4c-.15,0-.29.08-.37.2l-1.62,2.51c-.09.13-.09.31-.02.45.08.14.22.23.38.23h1.19v4.08c0,.24.2.44.44.44h9.2c.24,0,.44-.2.44-.44v-4.08h1.18c.16,0,.31-.09.38-.23.08-.14.07-.31-.02-.45l-1.62-2.51ZM2.58,9.67l1.06-1.64h3.28l-1.06,1.64h-3.29ZM7.56,14.19h-3.72v-3.65h2.27c.15,0,.29-.08.37-.2l1.09-1.68v5.53ZM12.16,14.19h-3.72v-5.53l1.09,1.68c.08.13.22.2.37.2h2.27v3.65ZM12.6,9.67h-2.47l-1.06-1.64h3.28l1.06,1.64h-.82Z"/><path class="b" d="M5.57,4.51h1.18v1.73c0,.24.2.44.44.44.02,0,.04,0,.06-.01.02,0,.04.01.06.01h1.37s.04,0,.07-.01c.02,0,.04.01.07.01.24,0,.44-.2.44-.44v-1.73h1.18c.17,0,.33-.1.4-.26.07-.16.04-.34-.07-.47l-2.44-2.71s-.01,0-.02-.01,0-.01-.01-.02c-.02-.02-.04-.02-.06-.03-.02-.02-.05-.03-.07-.04-.03-.01-.05-.01-.08-.02-.03,0-.05-.01-.08-.01-.03,0-.05,0-.08.01-.03,0-.06,0-.08.02-.03.01-.05.03-.07.04-.02.01-.04.02-.06.03,0,0,0,.01-.01.02,0,0-.01,0-.02.01l-2.44,2.71c-.12.13-.15.31-.07.47.07.16.23.26.4.26ZM8,2.02l1.45,1.61h-.64c-.24,0-.44.2-.44.44v1.73h-.75v-1.73c0-.24-.2-.44-.44-.44h-.64l1.45-1.61Z"/></svg>