<?xml version="1.0" encoding="UTF-8"?><svg id="a" xmlns="http://www.w3.org/2000/svg" height="16" width="16" viewBox="0 0 16 16"><defs><style>.b{fill:#fff;}</style></defs><path class="b" d="M14.7,5.11c-.22-.11-.49-.02-.6.2l-.45.89c-.75-2.22-2.73-3.88-5.1-4.14-2.9-.31-5.63,1.5-6.48,4.32-.07.24.06.49.3.56.24.08.49-.06.56-.3.73-2.4,3.05-3.94,5.52-3.68,2.1.23,3.85,1.74,4.43,3.74l-1.18-.59c-.22-.11-.49-.02-.6.2s-.02.49.2.6l2,1s.01,0,.02,0c.06.03.12.04.18.04.02,0,.03,0,.05,0,.06,0,.12-.03.18-.06,0,0,.01-.01.02-.02.06-.04.1-.09.13-.14,0,0,.02-.01.02-.02l1-2c.11-.22.02-.49-.2-.6Z"/><path class="b" d="M13.63,9.05c-.24-.07-.49.06-.56.3-.73,2.4-3.05,3.94-5.52,3.68-2.1-.23-3.85-1.74-4.43-3.74l1.18.59c.06.03.13.05.2.05.17,0,.32-.09.4-.25.11-.22.02-.49-.2-.6l-2-1s-.02,0-.02,0c-.04-.02-.07-.02-.11-.03-.02,0-.05,0-.07,0-.02,0-.03,0-.04,0-.02,0-.03.01-.05.02-.03,0-.05.01-.08.03-.03.01-.05.03-.08.04-.02.02-.04.03-.06.05-.02.02-.04.05-.06.07,0,.01-.02.02-.03.04l-1,2c-.11.22-.02.49.2.6.06.03.13.05.2.05.17,0,.32-.09.4-.25l.45-.89c.75,2.22,2.73,3.89,5.1,4.14.22.02.43.04.65.04,2.65,0,5.05-1.75,5.83-4.35.07-.24-.06-.49-.3-.56Z"/></svg>