<?xml version="1.0" encoding="UTF-8"?><svg id="a" xmlns="http://www.w3.org/2000/svg" height="16" width="16" viewBox="0 0 16 16"><defs><style>.b{fill:#fff;}</style></defs><path class="b" d="M3.5,14.95h9c.25,0,.45-.2.45-.45V2.5c0-.25-.2-.45-.45-.45h-2.55v-.55c0-.25-.2-.45-.45-.45h-3c-.25,0-.45.2-.45.45v.55h-2.55c-.25,0-.45.2-.45.45v12c0,.25.2.45.45.45ZM6.95,1.95h2.1v1.1h-2.1v-1.1ZM3.95,2.95h2.1v.55c0,.25.2.45.45.45h3c.25,0,.45-.2.45-.45v-.55h2.1v11.1H3.95V2.95Z"/><path class="b" d="M10.5,5.55h-3c-.25,0-.45.2-.45.45s.2.45.45.45h3c.25,0,.45-.2.45-.45s-.2-.45-.45-.45Z"/><path class="b" d="M10.5,9.55h-3c-.25,0-.45.2-.45.45s.2.45.45.45h3c.25,0,.45-.2.45-.45s-.2-.45-.45-.45Z"/><path class="b" d="M10.5,7.55h-3c-.25,0-.45.2-.45.45s.2.45.45.45h3c.25,0,.45-.2.45-.45s-.2-.45-.45-.45Z"/><path class="b" d="M10.5,11.55h-3c-.25,0-.45.2-.45.45s.2.45.45.45h3c.25,0,.45-.2.45-.45s-.2-.45-.45-.45Z"/><path class="b" d="M5.82,5.68s-.09-.07-.15-.1c-.17-.07-.36-.02-.49.1-.04.04-.07.09-.1.15-.02.05-.03.11-.03.17,0,.12.05.23.13.32.09.08.2.13.32.13s.23-.05.32-.13c.08-.09.13-.2.13-.32,0-.06,0-.12-.03-.17-.03-.06-.06-.11-.1-.15Z"/><path class="b" d="M5.82,7.68c-.17-.17-.47-.17-.64,0-.04.04-.07.09-.1.15-.02.05-.03.11-.03.17,0,.12.05.23.13.32.09.08.2.13.32.13s.23-.05.32-.13c.08-.09.13-.2.13-.32,0-.06,0-.12-.03-.17-.03-.06-.06-.11-.1-.15Z"/><path class="b" d="M5.82,9.68s-.09-.07-.15-.1c-.17-.06-.36-.02-.49.1-.04.04-.07.09-.1.15-.02.05-.03.11-.03.17,0,.12.05.23.13.32.08.08.2.13.32.13.06,0,.12,0,.17-.03.06-.03.11-.06.15-.1.08-.09.13-.2.13-.32,0-.06,0-.12-.03-.17-.03-.06-.06-.11-.1-.15Z"/><path class="b" d="M5.82,11.68s-.09-.07-.15-.1c-.11-.04-.23-.04-.34,0-.06.03-.11.06-.15.1s-.07.09-.1.15c-.02.05-.03.11-.03.17,0,.12.05.23.13.32.09.08.2.13.32.13s.23-.05.32-.13c.08-.09.13-.2.13-.32,0-.06,0-.12-.03-.17-.03-.06-.06-.11-.1-.15Z"/></svg>