<?xml version="1.0" encoding="UTF-8"?><svg id="a" xmlns="http://www.w3.org/2000/svg" height="16" width="16" viewBox="0 0 16 16"><defs><style>.b{fill:#fff;}</style></defs><path class="b" d="M2.55,4.98c-.09.09-.14.19-.14.31s.05.23.14.31c.04.04.09.08.14.1.06.02.11.03.18.03.06,0,.11,0,.17-.03.05-.02.1-.06.14-.1.04-.04.08-.09.1-.15.02-.05.04-.11.04-.17,0-.12-.05-.22-.14-.31-.17-.16-.46-.16-.61,0Z"/><path class="b" d="M2.55,7.15c-.09.08-.14.19-.14.3,0,.06.02.12.04.18.02.05.05.1.1.14.04.05.09.08.14.1.06.02.11.03.18.03.06,0,.11,0,.17-.03.05-.02.1-.06.14-.1.09-.08.14-.19.14-.31,0-.11-.05-.22-.14-.3-.16-.17-.46-.17-.61,0Z"/><path class="b" d="M2.55,9.31c-.09.08-.14.19-.14.31,0,.06.02.11.04.17.02.05.05.1.1.14.08.09.19.14.31.14.11,0,.22-.05.3-.14.09-.08.14-.19.14-.3s-.05-.23-.14-.31c-.17-.17-.46-.17-.61,0Z"/><path class="b" d="M2.55,11.48c-.09.08-.14.19-.14.31,0,.06.02.12.04.17.02.06.05.11.1.15.04.04.09.07.14.1.06.02.11.03.18.03.06,0,.11,0,.17-.03.05-.03.1-.06.14-.1.09-.09.14-.19.14-.31s-.05-.23-.14-.31c-.16-.17-.46-.17-.61,0Z"/><path class="b" d="M13.96,6.09c-.69-.69-1.59-1.1-2.55-1.2v-2.85c0-.54-.44-.98-.98-.98H1.78c-.54,0-.98.44-.98.98v12.45c0,.24.2.44.44.44h9.74c.24,0,.44-.2.44-.44v-1.23c.96-.1,1.86-.5,2.55-1.19.8-.8,1.24-1.86,1.24-2.99s-.44-2.19-1.24-2.99ZM1.67,2.05c0-.06.05-.1.1-.1h8.66c.06,0,.1.05.1.1v.64H1.67v-.64ZM10.54,14.05H1.67V3.57h8.86v1.31c-.08,0-.15.03-.22.04-.1.02-.2.03-.31.06-.16.04-.31.09-.46.14-.09.03-.19.06-.28.1-.16.07-.31.16-.47.25-.07.04-.14.08-.21.12-.21.15-.42.31-.61.5h0c-.8.8-1.24,1.86-1.24,2.99,0,.28.03.56.08.83.02.09.05.17.08.26.05.17.09.35.16.51.04.1.1.19.14.28.07.14.14.29.23.42.06.09.13.18.2.27.09.12.18.24.29.35.08.08.17.16.25.23.11.1.22.19.34.28.1.07.2.13.3.19.13.08.25.15.38.21.11.05.22.09.33.13.14.05.28.09.42.13.12.03.24.05.36.07.07.01.14.04.22.04v.77ZM13.34,11.45c-.63.63-1.47.98-2.37.98-1.85,0-3.35-1.5-3.35-3.35,0-.89.35-1.74.98-2.37.63-.63,1.47-.98,2.37-.98s1.74.35,2.37.98c.63.63.98,1.47.98,2.37s-.35,1.74-.98,2.37Z"/><path class="b" d="M12.6,8.64h-1.19v-1.73c0-.24-.2-.44-.44-.44s-.44.2-.44.44v2.16c0,.24.2.44.44.44h1.62c.24,0,.44-.2.44-.44s-.2-.44-.44-.44Z"/><path class="b" d="M4.48,5.73h2.71c.24,0,.44-.2.44-.44s-.2-.44-.44-.44h-2.71c-.24,0-.44.2-.44.44s.2.44.44.44Z"/><path class="b" d="M4.48,7.9h1.62c.24,0,.44-.2.44-.44s-.2-.44-.44-.44h-1.62c-.24,0-.44.2-.44.44s.2.44.44.44Z"/><path class="b" d="M4.48,10.06h1.62c.24,0,.44-.2.44-.44s-.2-.44-.44-.44h-1.62c-.24,0-.44.2-.44.44s.2.44.44.44Z"/><path class="b" d="M6.65,11.35h-2.16c-.24,0-.44.2-.44.44s.2.44.44.44h2.16c.24,0,.44-.2.44-.44s-.2-.44-.44-.44Z"/></svg>