<?xml version="1.0" encoding="UTF-8"?><svg id="a" xmlns="http://www.w3.org/2000/svg" height="16" width="16" viewBox="0 0 16 16"><defs><style>.b{fill:#fff;}</style></defs><path class="b" d="M3.12,11.62c.34.6,1.1.82,1.71.48s.82-1.1.48-1.71c-.05-.09-.13-.16-.2-.23,0-.01.02-.02.03-.03l1.71-2.49c.14-.2.09-.47-.11-.61-.02-.01-.03-.01-.05-.02,0,0-.02-.02-.03-.03-.3-.19-.56-.44-.76-.74-.8-1.18-.49-2.8.69-3.6,1.19-.8,2.8-.49,3.6.69.39.57.53,1.26.4,1.94-.02.1-.04.19-.07.29-.07.23.05.48.29.55.23.07.48-.05.55-.29.04-.13.07-.26.1-.39.17-.91-.02-1.83-.54-2.6-1.07-1.58-3.23-2-4.82-.93-1.58,1.07-2,3.23-.92,4.82.2.29.45.53.72.75l-1.47,2.14s-.05.1-.06.15c-.25-.03-.51,0-.75.13-.6.34-.82,1.1-.48,1.71Z"/><path class="b" d="M11.3,7.54c-.35.04-.68.16-.99.3l-1.25-2.28s-.06-.09-.1-.12c.14-.21.23-.45.22-.73-.03-.69-.61-1.23-1.3-1.2-.69.03-1.23.61-1.2,1.3s.61,1.23,1.3,1.2c.11,0,.2-.04.3-.07,0,.01,0,.03.01.04l1.45,2.65c.08.15.23.23.38.23.07,0,.14-.02.21-.05.02,0,.03-.02.04-.03.01,0,.02,0,.03-.01.31-.18.64-.3,1-.34,1.42-.18,2.72.83,2.9,2.25s-.83,2.72-2.25,2.9c-.69.08-1.37-.1-1.91-.52-.08-.06-.15-.13-.23-.2-.17-.17-.45-.17-.62,0-.17.17-.17.45,0,.62.1.09.2.18.3.26.61.48,1.35.73,2.12.73.15,0,.29,0,.44-.03,1.9-.24,3.25-1.98,3.01-3.88-.24-1.9-1.98-3.24-3.88-3.01Z"/><path class="b" d="M10.47,11.4c.12.22.29.42.53.54.62.3,1.37.04,1.67-.58.3-.62.04-1.37-.58-1.67-.62-.3-1.37-.04-1.67.58-.05.1-.06.2-.08.3-.01,0-.03,0-.04,0h-3.02c-.24.01-.44.21-.44.45,0,.02,0,.03.01.05,0,.01,0,.02,0,.04.01.36-.04.71-.18,1.04-.52,1.33-2.03,2-3.35,1.48-.65-.25-1.15-.74-1.43-1.37-.28-.63-.29-1.34-.04-1.98.25-.64.74-1.15,1.37-1.43.09-.04.19-.08.28-.11.23-.07.36-.32.29-.55-.07-.23-.32-.36-.55-.29-.13.04-.25.09-.37.14-.85.37-1.5,1.06-1.83,1.92-.33.86-.31,1.81.06,2.65.37.85,1.05,1.5,1.92,1.83.41.16.84.24,1.25.24,1.39,0,2.71-.84,3.24-2.21.13-.33.19-.67.21-1.01h2.6c.06-.01.11-.02.16-.04Z"/></svg>