<?xml version="1.0" encoding="UTF-8"?><svg id="a" xmlns="http://www.w3.org/2000/svg" height="16" width="16" viewBox="0 0 16 16"><defs><style>.b{fill:#fff;}</style></defs><path class="b" d="M1.5,4.95h3c.25,0,.45-.2.45-.45V1.5c0-.25-.2-.45-.45-.45H1.5c-.25,0-.45.2-.45.45v3c0,.25.2.45.45.45ZM1.95,1.95h2.1v2.1H1.95V1.95Z"/><path class="b" d="M6.5,9.95h3c.25,0,.45-.2.45-.45v-3c0-.25-.2-.45-.45-.45h-3c-.25,0-.45.2-.45.45v3c0,.25.2.45.45.45ZM6.95,6.95h2.1v2.1h-2.1v-2.1Z"/><path class="b" d="M14.5,11.05h-3c-.25,0-.45.2-.45.45v3c0,.25.2.45.45.45h3c.25,0,.45-.2.45-.45v-3c0-.25-.2-.45-.45-.45ZM14.05,14.05h-2.1v-2.1h2.1v2.1Z"/><path class="b" d="M8.31,14.07c.09.09.2.13.32.13s.23-.04.32-.13l.75-.75c.18-.18.18-.46,0-.64l-.75-.75c-.18-.18-.46-.18-.64,0s-.17.44-.01.62H1.95v-4.1h2.55c.25,0,.45-.2.45-.45s-.2-.45-.45-.45H1.5c-.25,0-.45.2-.45.45,0,.04.01.08.03.12-.01.04-.03.08-.03.12v4.5s.01.08.03.12c-.01.04-.03.08-.03.12,0,.25.2.45.45.45h6.79c-.16.18-.16.45.01.62Z"/><path class="b" d="M14.5,2.55H6.5c-.25,0-.45.2-.45.45s.2.45.45.45h7.55v4.1h-1.34c.16-.18.16-.45-.01-.62s-.46-.18-.64,0l-.75.75c-.18.18-.18.46,0,.64l.75.75c.09.09.2.13.32.13s.23-.04.32-.13c.17-.17.17-.44.01-.62h1.79c.25,0,.45-.2.45-.45,0-.04-.01-.08-.03-.12.01-.04.03-.08.03-.12V3.25s-.01-.08-.03-.12c.01-.04.03-.08.03-.12,0-.25-.2-.45-.45-.45Z"/></svg>