<?xml version="1.0" encoding="UTF-8"?><svg id="a" xmlns="http://www.w3.org/2000/svg" height="30" width="30" viewBox="0 0 30 30"><defs><style>.b{fill:#fff;}</style></defs><path class="b" d="M15,29c-7.72,0-14-6.28-14-14S7.28,1,15,1s14,6.28,14,14-6.28,14-14,14ZM15,2C7.83,2,2,7.83,2,15s5.83,13,13,13,13-5.83,13-13S22.17,2,15,2Z"/><path class="b" d="M15.93,22.02c-.28,0-.5-.22-.5-.5v-8.85c0-.28.22-.5.5-.5s.5.22.5.5v8.85c0,.28-.22.5-.5.5Z"/><circle class="b" cx="15" cy="8.02" r="1.86"/><path class="b" d="M15.93,13.17h-3.72c-.28,0-.5-.22-.5-.5s.22-.5.5-.5h3.72c.28,0,.5.22.5.5s-.22.5-.5.5Z"/><path class="b" d="M17.79,22.48h-5.59c-.28,0-.5-.22-.5-.5s.22-.5.5-.5h5.59c.28,0,.5.22.5.5s-.22.5-.5.5Z"/></svg>