<?xml version="1.0" encoding="UTF-8"?><svg id="a" xmlns="http://www.w3.org/2000/svg" height="30" width="30" viewBox="0 0 30 30"><defs><style>.b{fill:#fff;}</style></defs><path class="b" d="M3.68,27.76h16.98c1.16,0,2.12-.83,2.34-1.92,1.23-.09,2.41-.52,3.39-1.31,1.28-1.03,2.09-2.49,2.28-4.13.04-.31.05-.63.04-.93-.01-.28-.23-.5-.52-.48-.28.01-.49.24-.48.52,0,.26,0,.52-.03.78-.15,1.37-.83,2.6-1.91,3.46-1,.8-2.24,1.17-3.5,1.1-.18,0-.36-.03-.53-.05-.16-.03-.33-.06-.48-.1-.18-.05-.35-.1-.52-.16-.13-.05-.27-.11-.39-.17-.18-.09-.36-.18-.52-.28-.11-.07-.21-.14-.31-.22-.16-.12-.32-.25-.47-.39-.1-.09-.19-.19-.28-.29-.13-.15-.26-.3-.38-.46-.08-.11-.15-.23-.23-.35-.1-.17-.2-.34-.28-.52-.06-.12-.1-.25-.15-.37-.07-.19-.13-.37-.18-.57-.03-.14-.06-.28-.08-.42-.03-.19-.05-.38-.06-.58,0-.16,0-.32,0-.48,0-.18.03-.36.05-.53.03-.17.06-.33.1-.49.05-.18.1-.35.16-.52.05-.14.11-.27.17-.4.09-.18.18-.36.28-.52.07-.11.14-.21.21-.31.12-.17.25-.33.39-.48.09-.09.18-.18.28-.27.15-.14.3-.26.46-.38.11-.08.23-.15.34-.22.17-.1.34-.2.52-.28.13-.06.25-.11.38-.15.18-.07.37-.13.56-.17.14-.03.29-.06.43-.08.19-.03.38-.05.57-.06.26,0,.52-.02.78.01.45.05.89.16,1.3.32.25.1.55-.03.65-.29.1-.26-.03-.55-.29-.65-.5-.19-1.02-.32-1.55-.38-.08,0-.16,0-.23-.01-.22-1.09-1.19-1.91-2.34-1.91h-1.39v-2.33c0-1.91-.74-3.69-2.09-5.01-1.33-1.35-3.11-2.09-5.02-2.09-3.92,0-7.1,3.19-7.1,7.1v2.33h-1.39c-1.32,0-2.39,1.07-2.39,2.39v11.32c0,1.32,1.07,2.39,2.39,2.39ZM6.07,9.34c0-3.37,2.74-6.1,6.1-6.1,1.64,0,3.17.64,4.31,1.8,1.16,1.14,1.79,2.67,1.79,4.3v2.33H6.07v-2.33ZM2.29,14.06c0-.76.62-1.39,1.39-1.39h16.98c.6,0,1.11.38,1.3.91-.04,0-.07.01-.11.02-1.15.13-2.24.57-3.16,1.3-.1.08-.2.17-.29.26,0,0,0,0-.01,0-.14.12-.27.26-.39.39,0,0,0,0,0,0-.25.27-.48.57-.67.88,0,0,0,0,0,.01-.09.15-.18.3-.26.46-.01.02-.02.04-.03.06-.07.14-.14.28-.19.43-.02.05-.04.1-.06.15-.05.12-.09.24-.13.37-.03.09-.05.17-.07.26-.02.1-.05.19-.07.29-.02.11-.04.23-.06.34,0,.07-.02.13-.03.2,0,.01,0,.03,0,.04-.01.1-.01.2-.02.31,0,.1-.01.21-.01.31,0,0,0,.02,0,.02,0,.05,0,.1,0,.15,0,.15,0,.3.02.44,0,0,0,0,0,0,.11,1.18.56,2.3,1.31,3.25.32.4.69.76,1.1,1.06,0,0,0,0,0,0,.15.11.3.21.45.31,0,0,.02,0,.02.01.15.09.3.18.45.25.02.01.05.02.08.04.14.07.28.13.42.19.05.02.11.04.16.06.12.04.24.09.36.12.09.03.18.05.27.07.09.02.19.05.28.07.11.02.23.04.34.05.07,0,.13.02.2.03.01,0,.03,0,.04,0,.02,0,.04,0,.06,0-.19.53-.71.91-1.3.91H3.68c-.76,0-1.39-.62-1.39-1.39v-11.32Z"/><path class="b" d="M21.01,19.36c-.2-.2-.51-.2-.71,0s-.2.51,0,.71l1.89,1.89s.01,0,.02.01c0,0,0,.01.01.02.03.02.06.04.09.05.02,0,.03.02.05.03.06.02.12.03.18.03.07,0,.13-.02.2-.04.02,0,.04-.03.06-.04.03-.02.07-.04.1-.07,0,0,0-.01.01-.02,0,0,.01,0,.02-.01l4.72-5.66c.18-.21.15-.53-.06-.7-.21-.18-.53-.15-.7.06l-4.37,5.24-1.5-1.5Z"/></svg>