<?xml version="1.0" encoding="UTF-8"?><svg id="a" xmlns="http://www.w3.org/2000/svg" viewBox="0 0 30 30"><defs><style>.b{fill:#fff;}</style></defs><path class="b" d="M23.79,2.6H6.21c-.85,0-1.53.69-1.53,1.53v20.69c0,.69.27,1.34.75,1.81.48.49,1.12.76,1.82.76h17.59c.28,0,.5-.22.5-.5V4.14c0-.85-.69-1.53-1.53-1.53ZM24.33,4.14v18.12h-15.55V3.6h15.02c.29,0,.53.24.53.53ZM5.67,4.14c0-.29.24-.53.53-.53h1.57v18.66h-.53c-.16,0-.32.02-.48.05-.05,0-.1.03-.15.04-.1.03-.2.06-.3.09-.05.02-.11.05-.16.07-.09.04-.17.09-.26.14-.05.03-.1.06-.15.1-.02.02-.05.03-.08.05V4.14ZM24.33,26.4H7.24c-.42,0-.81-.16-1.11-.47-.3-.29-.46-.68-.46-1.1,0-.87.7-1.57,1.57-1.57h17.09v3.14Z"/><path class="b" d="M11.38,12.91h10.35c.28,0,.5-.22.5-.5v-5.17c0-.28-.22-.5-.5-.5h-10.35c-.28,0-.5.22-.5.5v5.17c0,.28.22.5.5.5ZM11.88,7.74h9.35v4.17h-9.35v-4.17Z"/></svg>