<?xml version="1.0" encoding="UTF-8"?><svg id="a" xmlns="http://www.w3.org/2000/svg" height="30" width="30" viewBox="0 0 30 30"><defs><style>.b{fill:#fff;}</style></defs><path class="b" d="M10.79,16.46c.22-.3.52-.44.93-.44.35,0,.62.08.79.25.18.17.29.45.33.84v.11h1.29v-.14c-.08-.68-.33-1.21-.75-1.58-.42-.37-.98-.56-1.66-.56-.51,0-.96.12-1.35.37-.39.24-.69.59-.9,1.04-.21.44-.31.96-.31,1.53v.56c0,.56.12,1.06.32,1.49.2.43.5.77.88,1.01.38.24.82.36,1.31.36.7,0,1.28-.19,1.71-.56.43-.37.68-.9.74-1.56v-.14s-1.26,0-1.26,0v.11c-.06.39-.18.67-.36.83-.18.16-.46.24-.83.24-.4,0-.7-.15-.9-.45-.21-.31-.32-.78-.32-1.4v-.52c0-.6.12-1.06.34-1.37Z"/><path class="b" d="M18.3,18.03c-.29-.18-.66-.34-1.14-.48-.45-.13-.77-.27-.96-.4-.17-.12-.25-.27-.25-.44,0-.22.08-.38.23-.5.16-.12.4-.19.71-.19.33,0,.58.08.75.23.17.15.25.36.25.63v.12h1.28v-.12c0-.36-.1-.7-.3-1-.2-.3-.47-.53-.81-.69-.34-.16-.73-.24-1.16-.24-.65,0-1.18.17-1.59.49-.42.33-.63.76-.63,1.28,0,.59.29,1.07.87,1.43.29.18.68.35,1.17.5.46.14.78.27.95.41.15.12.23.28.23.5,0,.2-.07.36-.22.48-.16.13-.4.19-.73.19-.38,0-.68-.08-.88-.25-.19-.16-.29-.38-.29-.68v-.12h-1.28v.12c0,.4.11.75.32,1.05.21.3.51.53.89.7.37.17.79.25,1.23.25.67,0,1.22-.16,1.62-.46.41-.31.62-.74.62-1.28,0-.33-.07-.61-.21-.86-.14-.24-.36-.46-.66-.65Z"/><path class="b" d="M21.93,14.93c-.65,0-1.18.17-1.59.49-.42.33-.63.76-.63,1.28,0,.59.29,1.07.87,1.43.29.18.68.35,1.17.5.46.14.78.27.95.41.15.12.23.28.23.5,0,.2-.07.36-.22.48-.16.13-.4.19-.73.19-.38,0-.68-.08-.88-.25-.19-.16-.29-.38-.29-.68v-.12h-1.28v.12c0,.4.11.75.32,1.05.21.3.51.53.89.7.38.17.79.25,1.23.25.67,0,1.22-.16,1.62-.46.41-.32.62-.75.62-1.28,0-.33-.07-.61-.21-.86-.14-.24-.36-.46-.66-.65-.29-.18-.66-.34-1.14-.48-.45-.13-.77-.27-.96-.4-.17-.12-.25-.27-.25-.44,0-.22.08-.38.23-.5.16-.13.4-.19.71-.19.33,0,.58.08.75.23.17.15.25.36.25.63v.12h1.28v-.12c0-.36-.1-.7-.3-1-.2-.3-.47-.53-.81-.69-.34-.16-.73-.24-1.16-.24Z"/><path class="b" d="M26.51,11.91h-2.6v-3.64s-.01-.04-.01-.07c0-.03,0-.07-.02-.1-.01-.03-.03-.06-.05-.09-.01-.02-.02-.04-.03-.06l-5.24-6.21s-.01,0-.02-.01c-.02-.03-.05-.04-.08-.06-.03-.02-.05-.04-.08-.05-.03-.01-.05-.02-.08-.02-.04,0-.07-.02-.11-.02,0,0-.01,0-.02,0H3.49c-.28,0-.5.22-.5.5v25.86c0,.28.22.5.5.5h19.91c.28,0,.5-.22.5-.5v-3.64h2.6c.28,0,.5-.22.5-.5v-11.38c0-.28-.22-.5-.5-.5ZM18.67,3.44l3.66,4.34h-3.66V3.44ZM22.91,27.43H3.99V2.57h13.67v5.71c0,.28.22.5.5.5h4.74v3.14H6.85c-.28,0-.5.22-.5.5v11.38c0,.28.22.5.5.5h16.05v3.14ZM26.01,23.29H7.4v-10.38h18.61v10.38Z"/></svg>