<?xml version="1.0" encoding="UTF-8"?><svg id="a" xmlns="http://www.w3.org/2000/svg" height="30" width="30" viewBox="0 0 30 30"><defs><style>.b{fill:#fff;}</style></defs><path class="b" d="M6.02,6.79h1.74l.33.99h1.05l-1.8-4.81h-.92l-1.79,4.81h1.05l.33-.99ZM6.89,4.18l.6,1.8h-1.2l.6-1.8Z"/><path class="b" d="M24.65,7.42c.3-.24.44-.59.44-1.05,0-.27-.07-.5-.21-.69-.14-.19-.34-.31-.58-.37.22-.08.38-.22.51-.39.12-.18.18-.39.18-.62,0-.43-.15-.76-.45-.98-.3-.22-.75-.34-1.33-.34h-1.69v4.81h1.87c.55,0,.97-.13,1.26-.36ZM22.5,3.77h.69c.27,0,.47.05.6.14.13.1.19.25.19.47,0,.39-.25.59-.75.6h-.73v-1.21ZM22.5,6.98v-1.3h.91c.46,0,.68.23.68.67,0,.2-.07.35-.2.46-.13.11-.31.17-.55.17h-.85Z"/><path class="b" d="M12.47.82H1.32c-.28,0-.5.22-.5.5v27.36c0,.28.22.5.5.5h11.15c.28,0,.5-.22.5-.5V1.32c0-.28-.22-.5-.5-.5ZM11.97,1.82v7.11H1.82V1.82h10.15ZM1.82,28.18V9.93h10.15v18.25H1.82Z"/><path class="b" d="M28.68.82h-11.15c-.28,0-.5.22-.5.5v27.36c0,.28.22.5.5.5h11.15c.28,0,.5-.22.5-.5V1.32c0-.28-.22-.5-.5-.5ZM28.18,1.82v7.11h-10.15V1.82h10.15ZM18.03,28.18V9.93h10.15v18.25h-10.15Z"/><path class="b" d="M9.43,12.98h-5.07c-.28,0-.5.22-.5.5v4.05c0,.28.22.5.5.5h5.07c.28,0,.5-.22.5-.5v-4.05c0-.28-.22-.5-.5-.5ZM8.93,17.03h-4.07v-3.05h4.07v3.05Z"/><path class="b" d="M25.64,20.07h-5.07c-.28,0-.5.22-.5.5v4.05c0,.28.22.5.5.5h5.07c.28,0,.5-.22.5-.5v-4.05c0-.28-.22-.5-.5-.5ZM25.14,24.13h-4.07v-3.05h4.07v3.05Z"/><path class="b" d="M9.43,21.09h-5.07c-.28,0-.5.22-.5.5s.22.5.5.5h5.07c.28,0,.5-.22.5-.5s-.22-.5-.5-.5Z"/><path class="b" d="M9.43,24.13h-5.07c-.28,0-.5.22-.5.5s.22.5.5.5h5.07c.28,0,.5-.22.5-.5s-.22-.5-.5-.5Z"/><path class="b" d="M25.64,12.98h-5.07c-.28,0-.5.22-.5.5s.22.5.5.5h5.07c.28,0,.5-.22.5-.5s-.22-.5-.5-.5Z"/><path class="b" d="M25.64,16.02h-5.07c-.28,0-.5.22-.5.5s.22.5.5.5h5.07c.28,0,.5-.22.5-.5s-.22-.5-.5-.5Z"/></svg>