<?xml version="1.0" encoding="UTF-8"?><svg id="a" xmlns="http://www.w3.org/2000/svg" height="30" width="30" viewBox="0 0 30 30"><defs><style>.b{fill:#fff;}</style></defs><path class="b" d="M26,18.5h-14.16l5.6-7h8.56c.28,0,.5-.22.5-.5s-.22-.5-.5-.5h-7.76l4.15-5.19c.17-.22.14-.53-.08-.7-.21-.17-.53-.14-.7.08l-4.65,5.81H4c-.28,0-.5.22-.5.5s.22.5.5.5h12.16l-5.6,7h-6.56c-.28,0-.5.22-.5.5s.22.5.5.5h5.76l-4.15,5.19c-.17.22-.14.53.08.7.09.07.2.11.31.11.15,0,.29-.06.39-.19l4.65-5.81h14.96c.28,0,.5-.22.5-.5s-.22-.5-.5-.5Z"/></svg>