<?xml version="1.0" encoding="UTF-8"?><svg id="a" xmlns="http://www.w3.org/2000/svg" height="30" width="30" viewBox="0 0 30 30"><defs><style>.b{fill:#fff;}</style></defs><path class="b" d="M15,22.1c.28,0,.5-.22.5-.5V3.94l2.92,2.92c.1.1.23.15.35.15s.26-.05.35-.15c.2-.2.2-.51,0-.71l-3.77-3.77s-.1-.08-.16-.11c-.12-.05-.26-.05-.38,0-.06.03-.12.06-.16.11l-3.77,3.77c-.2.2-.2.51,0,.71.1.1.23.15.35.15s.26-.05.35-.15l2.92-2.92v17.66c0,.28.22.5.5.5Z"/><path class="b" d="M25.38,11.67h-5.66c-.28,0-.5.22-.5.5s.22.5.5.5h5.66c.76,0,1.39.62,1.39,1.39v11.32c0,.76-.62,1.39-1.39,1.39H4.62c-.76,0-1.39-.62-1.39-1.39v-11.32c0-.76.62-1.39,1.39-1.39h5.66c.28,0,.5-.22.5-.5s-.22-.5-.5-.5h-5.66c-1.32,0-2.39,1.07-2.39,2.39v11.32c0,1.32,1.07,2.39,2.39,2.39h20.75c1.32,0,2.39-1.07,2.39-2.39v-11.32c0-1.32-1.07-2.39-2.39-2.39Z"/></svg>