<?xml version="1.0" encoding="UTF-8"?><svg id="a" xmlns="http://www.w3.org/2000/svg" height="30" width="30" viewBox="0 0 30 30"><defs><style>.b{fill:#fff;}</style></defs><path class="b" d="M26.9,2.6H3.1c-.28,0-.5.22-.5.5v6.21c0,.28.22.5.5.5h23.79c.28,0,.5-.22.5-.5V3.1c0-.28-.22-.5-.5-.5ZM26.4,8.81H3.6V3.6h22.79v5.21Z"/><path class="b" d="M6.21,6.71h16.55c.28,0,.5-.22.5-.5s-.22-.5-.5-.5H6.21c-.28,0-.5.22-.5.5s.22.5.5.5Z"/><path class="b" d="M6.21,16.05c-.28,0-.5.22-.5.5s.22.5.5.5h9.31c.28,0,.5-.22.5-.5s-.22-.5-.5-.5H6.21Z"/><path class="b" d="M26.9,12.95H3.1c-.28,0-.5.22-.5.5v6.21c0,.28.22.5.5.5h12.41c.28,0,.5-.22.5-.5s-.22-.5-.5-.5H3.6v-5.21h22.79v3.64c0,.28.22.5.5.5s.5-.22.5-.5v-4.14c0-.28-.22-.5-.5-.5Z"/><path class="b" d="M19.98,17.21c-.15-.13-.36-.16-.53-.07-.18.08-.29.26-.29.45v9.31c0,.23.16.43.38.49.04,0,.08.01.12.01.19,0,.36-.1.45-.28l1.9-3.8,4.8.96c.22.04.45-.07.55-.27.1-.2.05-.45-.12-.6l-7.24-6.21ZM21.82,22.27c-.22-.05-.44.07-.54.27l-1.12,2.24v-6.11l4.96,4.25-3.3-.66Z"/></svg>