<?xml version="1.0" encoding="UTF-8"?><svg id="a" xmlns="http://www.w3.org/2000/svg" viewBox="0 0 30 30"><defs><style>.b{fill:#fff;}</style></defs><path class="b" d="M7.24,5.67h3.1c.28,0,.5-.22.5-.5s-.22-.5-.5-.5h-3.1c-.28,0-.5.22-.5.5s.22.5.5.5Z"/><path class="b" d="M13.45,5.67h9.31c.28,0,.5-.22.5-.5s-.22-.5-.5-.5h-9.31c-.28,0-.5.22-.5.5s.22.5.5.5Z"/><path class="b" d="M22.76,24.33h-3.1c-.28,0-.5.22-.5.5s.22.5.5.5h3.1c.28,0,.5-.22.5-.5s-.22-.5-.5-.5Z"/><path class="b" d="M16.55,24.33H7.24c-.28,0-.5.22-.5.5s.22.5.5.5h9.31c.28,0,.5-.22.5-.5s-.22-.5-.5-.5Z"/><path class="b" d="M25.86,1.57H4.14c-.28,0-.5.22-.5.5v25.86c0,.28.22.5.5.5h21.72c.28,0,.5-.22.5-.5V2.07c0-.28-.22-.5-.5-.5ZM4.64,8.78h20.72v12.45H4.64v-12.45ZM25.36,2.57v5.21H4.64V2.57h20.72ZM4.64,27.43v-5.21h20.72v5.21H4.64Z"/></svg>