<?xml version="1.0" encoding="UTF-8"?><svg id="a" xmlns="http://www.w3.org/2000/svg" height="30" width="30" viewBox="0 0 30 30"><defs><style>.b{fill:#fff;}</style></defs><path class="b" d="M20.26,17.84c-.12-.05-.26-.05-.38,0-.06.03-.12.06-.16.11l-2.83,2.83c-.2.2-.2.51,0,.71.1.1.23.15.35.15s.26-.05.35-.15l1.98-1.98v3.04c0,2.07-1.47,3.75-3.27,3.75s-3.27-1.68-3.27-3.75v-13.7c1.47-.24,2.59-1.51,2.59-3.04,0-1.71-1.39-3.09-3.09-3.09s-3.09,1.39-3.09,3.09c0,1.53,1.13,2.8,2.59,3.04v14.17c0,.09.03.16.06.23.31,2.28,2.07,4.04,4.21,4.04,2.36,0,4.27-2.13,4.27-4.75v-4.25c0-.07-.01-.13-.04-.19-.05-.12-.15-.22-.27-.27ZM10.43,5.8c0-1.15.94-2.09,2.09-2.09s2.09.94,2.09,2.09-.94,2.09-2.09,2.09-2.09-.94-2.09-2.09Z"/></svg>