<?xml version="1.0" encoding="UTF-8"?><svg id="a" xmlns="http://www.w3.org/2000/svg" height="30" width="30" viewBox="0 0 30 30"><defs><style>.b{fill:#fff;}</style></defs><path class="b" d="M10.87,17.48c-.2.2-.2.51,0,.71l3.77,3.77c.1.1.23.15.35.15s.26-.05.35-.15l3.77-3.77c.2-.2.2-.51,0-.71s-.51-.2-.71,0l-2.84,2.84-.08-17.58c0-.28-.22-.5-.5-.5h0c-.28,0-.5.23-.5.5l.08,17.74-3-3c-.2-.2-.51-.2-.71,0Z"/><path class="b" d="M25.38,11.67h-5.66c-.28,0-.5.22-.5.5s.22.5.5.5h5.66c.76,0,1.39.62,1.39,1.39v11.32c0,.76-.62,1.39-1.39,1.39H4.62c-.76,0-1.39-.62-1.39-1.39v-11.32c0-.76.62-1.39,1.39-1.39h5.66c.28,0,.5-.22.5-.5s-.22-.5-.5-.5h-5.66c-1.32,0-2.39,1.07-2.39,2.39v11.32c0,1.32,1.07,2.39,2.39,2.39h20.75c1.32,0,2.39-1.07,2.39-2.39v-11.32c0-1.32-1.07-2.39-2.39-2.39Z"/></svg>