<?xml version="1.0" encoding="UTF-8"?><svg id="a" xmlns="http://www.w3.org/2000/svg" height="30" width="30" viewBox="0 0 30 30"><defs><style>.b{fill:#fff;}</style></defs><path class="b" d="M14.06,10.73h-3.77c-.28,0-.5.22-.5.5s.22.5.5.5h3.77c.28,0,.5-.22.5-.5s-.22-.5-.5-.5Z"/><path class="b" d="M14.06,22.05h-3.77c-.28,0-.5.22-.5.5s.22.5.5.5h3.77c.28,0,.5-.22.5-.5s-.22-.5-.5-.5Z"/><path class="b" d="M6.15,10.87c-.09.1-.14.22-.14.36,0,.06.01.13.04.19.02.06.06.11.1.16.1.09.23.15.36.15s.26-.06.35-.15c.05-.05.09-.1.11-.16.03-.06.04-.13.04-.19,0-.14-.05-.27-.15-.36-.18-.18-.51-.18-.71,0Z"/><path class="b" d="M6.7,14.54c-.18-.08-.41-.03-.54.11-.1.09-.15.22-.15.35s.05.26.15.35c.04.05.1.09.16.11.06.03.12.04.19.04.06,0,.13-.01.19-.04.06-.02.12-.06.16-.11.1-.09.15-.22.15-.35s-.05-.26-.15-.35c-.04-.05-.1-.09-.16-.11Z"/><path class="b" d="M6.86,18.42c-.04-.05-.1-.08-.16-.11-.12-.05-.26-.05-.38,0-.06.03-.12.06-.16.11-.05.05-.09.1-.11.16-.03.06-.04.13-.04.19,0,.07.01.13.04.19.02.07.06.12.11.17.04.04.1.08.16.1.06.03.12.04.19.04s.13-.01.19-.04c.06-.02.12-.06.16-.1.05-.05.09-.1.11-.17.03-.06.04-.12.04-.19,0-.06,0-.13-.04-.19-.02-.06-.06-.11-.11-.16Z"/><path class="b" d="M6.7,22.09c-.12-.06-.26-.06-.38,0-.06.02-.12.06-.17.1-.04.05-.08.11-.1.17-.03.06-.04.12-.04.19,0,.13.05.26.14.35.05.05.11.08.17.11.06.02.12.04.19.04s.13-.02.19-.04c.06-.03.12-.06.16-.11.1-.09.15-.22.15-.35s-.05-.26-.15-.36c-.04-.04-.1-.08-.16-.1Z"/><path class="b" d="M10.28,19.27h1.89c.28,0,.5-.22.5-.5s-.22-.5-.5-.5h-1.89c-.28,0-.5.22-.5.5s.22.5.5.5Z"/><path class="b" d="M10.28,15.5h1.89c.28,0,.5-.22.5-.5s-.22-.5-.5-.5h-1.89c-.28,0-.5.22-.5.5s.22.5.5.5Z"/><path class="b" d="M21.6,11.67c-.49,0-.94.07-1.39.18v-7.23c0-.28-.22-.5-.5-.5h-5.16v-1.39c0-.28-.22-.5-.5-.5h-5.66c-.28,0-.5.22-.5.5v1.39H2.74c-.28,0-.5.22-.5.5v22.64c0,.28.22.5.5.5h16.98c.28,0,.5-.22.5-.5v-3.46c.45.11.9.18,1.39.18,3.4,0,6.16-2.76,6.16-6.16s-2.76-6.16-6.16-6.16ZM8.9,3.24h4.66v2.77h-4.66v-2.77ZM19.22,26.76H3.24V5.12h4.66v1.39c0,.28.22.5.5.5h5.66c.28,0,.5-.22.5-.5v-1.39h4.66v7.04c-.1.04-.19.1-.29.15-.13.06-.26.12-.38.19-.15.08-.29.18-.43.27-.12.08-.23.15-.34.24-.13.1-.25.22-.38.33-.1.09-.2.18-.3.28-.12.12-.22.26-.33.39-.08.11-.17.21-.25.32-.1.14-.18.3-.27.45-.06.11-.13.22-.19.34-.08.17-.14.34-.21.51-.04.11-.1.22-.13.34-.06.2-.1.4-.14.6-.02.1-.05.2-.07.3-.05.31-.07.63-.07.95s.03.64.07.95c.02.11.05.21.07.31.04.2.08.4.14.59.04.13.1.24.14.37.06.16.12.33.2.48.06.13.14.25.22.38.08.14.15.27.24.4.09.13.19.25.29.37.09.11.18.23.28.33.11.12.23.23.35.34.1.09.2.19.31.28.13.1.27.19.4.28.12.08.24.16.36.23.14.08.28.14.42.21.09.04.18.1.27.14v3.27ZM21.6,22.99c-.61,0-1.18-.1-1.73-.31-2.05-.7-3.44-2.65-3.44-4.85,0-.27.02-.55.06-.81.29-1.85,1.58-3.42,3.39-4.04.52-.2,1.1-.31,1.71-.31,2.85,0,5.16,2.31,5.16,5.16s-2.31,5.16-5.16,5.16Z"/><path class="b" d="M23.87,17.33h-1.76v-1.76c0-.28-.22-.5-.5-.5s-.5.22-.5.5v2.26c0,.28.22.5.5.5h2.26c.28,0,.5-.22.5-.5s-.22-.5-.5-.5Z"/></svg>