<?xml version="1.0" encoding="UTF-8"?><svg id="a" xmlns="http://www.w3.org/2000/svg" height="30" width="30" viewBox="0 0 30 30"><defs><style>.b{fill:#fff;}</style></defs><path class="b" d="M18.25,4.65l-3.93,3.93c-.2.2-.2.51,0,.71s.51.2.71,0l3.93-3.93c1.57-1.57,4.12-1.57,5.69,0,1.57,1.57,1.57,4.12,0,5.69l-4.8,4.8c-.76.76-1.77,1.18-2.85,1.18s-2.09-.42-2.85-1.18c-.1-.1-.19-.2-.27-.3-.17-.21-.49-.25-.7-.07-.21.17-.25.49-.07.7.11.13.22.26.34.38.98.98,2.27,1.47,3.55,1.47s2.57-.49,3.55-1.47l4.8-4.8c1.96-1.96,1.96-5.15,0-7.1s-5.15-1.96-7.1,0Z"/><path class="b" d="M15.13,20.56l-4.08,4.08c-.76.76-1.77,1.18-2.85,1.18s-2.08-.42-2.84-1.18c-1.57-1.57-1.57-4.12,0-5.69l4.79-4.79c.47-.46,1.47-1.26,2.92-1.46,2.35-.33,4.06,1.17,4.39,1.47.2.19.52.18.71-.02.19-.2.18-.52-.02-.71-.38-.36-2.41-2.12-5.21-1.73-1.73.24-2.93,1.19-3.48,1.74l-4.8,4.8c-1.96,1.96-1.96,5.15,0,7.1.95.95,2.21,1.47,3.55,1.47s2.6-.52,3.55-1.47l4.08-4.08c.19-.2.19-.51,0-.71-.2-.2-.51-.2-.71,0Z"/></svg>