<?xml version="1.0" encoding="UTF-8"?><svg id="a" xmlns="http://www.w3.org/2000/svg" height="30" width="30" viewBox="0 0 30 30"><defs><style>.b{fill:#fff;}</style></defs><path class="b" d="M27.4,20.35c1.07-2.36.96-5.08-.32-7.35-2.01-3.51-6.21-4.96-9.91-3.52-.7-1.46-1.8-2.67-3.24-3.49-3.87-2.2-8.8-.85-11,3.01-1.28,2.25-1.4,4.98-.33,7.35l-1.55,3.61c-.08.18-.04.39.09.54.14.15.35.2.53.13l3.39-1.21c.28.21.58.41.88.58,1.23.7,2.6,1.05,3.99,1.05.98,0,1.96-.19,2.89-.55.08.16.14.32.23.48,1.07,1.87,2.8,3.22,4.88,3.79.71.19,1.43.29,2.15.29,1.38,0,2.75-.36,3.98-1.06.31-.17.6-.37.88-.58l3.39,1.21c.19.07.4.02.53-.13.14-.15.17-.36.09-.54l-1.56-3.61ZM6.44,19.13c-.34-.19-.67-.42-.97-.66-.09-.07-.2-.11-.32-.11-.06,0-.11,0-.17.03l-2.57.92,1.19-2.77c.06-.13.05-.29,0-.42-1.03-2.12-.95-4.59.21-6.62,1.93-3.38,6.25-4.56,9.64-2.63,1.26.71,2.23,1.75,2.84,3.01-.07.04-.14.08-.2.12-.22.12-.42.25-.62.39-.07.05-.13.1-.19.15-.13.1-.26.19-.38.29-.08.06-.14.13-.22.2-.11.1-.21.19-.31.29-.07.07-.14.15-.21.23-.09.1-.18.2-.27.3-.07.08-.13.17-.2.25-.08.1-.16.2-.23.31-.06.09-.12.18-.18.27-.07.11-.14.21-.2.32-.05.1-.1.19-.15.29-.06.11-.11.22-.17.33-.05.1-.09.2-.13.3-.05.11-.09.23-.14.34-.04.1-.07.21-.1.31-.04.12-.07.23-.1.35-.03.11-.05.21-.08.32-.03.12-.05.24-.07.36,0,0,0,0,0,0-.57-.24-1.14-.54-1.65-.99.68-.9,1.13-1.91,1.35-2.99.16-.01.32,0,.47,0,.25,0,.49,0,.73-.04l.1-.02v-1.12h-2.85v-.95h-1.33v.96h-2.82v1.19h1.29c.22,1.1.69,2.08,1.41,3-.77.71-1.69,1.09-2.56,1.4l-.13.04.06.12c.05.11.08.22.11.34.04.17.09.35.22.52l.05.07.08-.02c1.12-.31,2.11-.83,3-1.61.76.62,1.53,1.06,2.34,1.34,0,.06,0,.12,0,.18,0,.11,0,.22,0,.33,0,.13.02.25.03.38.01.11.02.22.04.33.02.13.04.26.06.39.02.11.04.21.06.32.03.13.06.26.1.39.03.11.06.21.09.31.01.04.02.09.04.13-1.96.74-4.17.57-5.99-.47ZM9.64,13.76c-.47-.58-.79-1.26-1-2.1h1.95c-.17.75-.48,1.44-.95,2.1ZM25.02,22.39c-.16-.06-.35-.03-.48.08-.3.25-.63.47-.97.66-1.64.94-3.54,1.17-5.36.67-1.82-.5-3.34-1.68-4.27-3.32-.15-.26-.28-.53-.39-.8-1.36-3.28-.06-7.07,3.05-8.83.18-.11.36-.2.56-.28.96-.44,1.96-.65,2.95-.65,2.46,0,4.81,1.29,6.11,3.57,1.16,2.04,1.23,4.52.2,6.62-.06.13-.07.28,0,.42l1.19,2.77-2.57-.91Z"/><path class="b" d="M20.57,13.51h-1.15l-2.47,6.55h1.41l.51-1.47h2.26l.52,1.47h1.41l-2.45-6.47-.03-.08ZM19.26,17.46l.74-2.11.74,2.11h-1.47Z"/></svg>