<?xml version="1.0" encoding="UTF-8"?><svg id="a" xmlns="http://www.w3.org/2000/svg" height="30" width="30" viewBox="0 0 30 30"><defs><style>.b{fill:#fff;}</style></defs><path class="b" d="M22.34,8.65h5.87c.28,0,.5-.22.5-.5V2.28c0-.28-.22-.5-.5-.5h-5.87c-.28,0-.5.22-.5.5v2.45s-.06-.02-.1-.02h-3.32s0,0-.01,0c-.04,0-.08.01-.12.02-.02,0-.05,0-.07.02-.03.01-.06.04-.09.06-.02.02-.05.03-.07.05-.02.02-.03.04-.04.07-.02.03-.04.06-.06.1,0,0,0,0,0,.01l-1.96,5.6-4.01-5.72s-.02-.02-.03-.03c-.02-.03-.05-.05-.07-.07-.03-.02-.05-.04-.08-.05-.03-.01-.05-.02-.08-.03-.03-.01-.07-.02-.1-.02-.01,0-.03,0-.04,0h-3.41v-2.44c0-.28-.22-.5-.5-.5H1.79c-.28,0-.5.22-.5.5v5.87c0,.28.22.5.5.5h5.87c.28,0,.5-.22.5-.5v-2.43h3.15l4.27,6.1-1.88,5.36-1.72-2.46s-.02-.02-.03-.03c-.02-.03-.05-.05-.07-.07-.03-.02-.05-.04-.08-.05-.03-.01-.06-.02-.09-.03-.03-.01-.07-.02-.1-.02-.01,0-.03,0-.04,0h-3.41v-2.43c0-.28-.22-.5-.5-.5H1.79c-.28,0-.5.22-.5.5v5.87c0,.28.22.5.5.5h5.87c.28,0,.5-.22.5-.5v-2.43h3.15l1.99,2.84-2.08,5.95h-3.06v-2.43c0-.28-.22-.5-.5-.5H1.79c-.28,0-.5.22-.5.5v5.87c0,.28.22.5.5.5h5.87c.28,0,.5-.22.5-.5v-2.44h3.41c.1,0,.18-.03.26-.08.02-.01.03-.02.05-.03.07-.06.13-.13.16-.21,0,0,0,0,0,0l1.96-5.6,4.01,5.72s.02.01.03.02c.03.04.08.08.12.11.02.01.03.03.05.03.06.03.14.05.21.05h3.32s.06-.01.1-.02v2.45c0,.28.22.5.5.5h5.87c.28,0,.5-.22.5-.5v-5.87c0-.28-.22-.5-.5-.5h-5.87c-.28,0-.5.22-.5.5v2.45s-.06-.02-.1-.02h-3.06l-4.27-6.1,1.88-5.36,1.72,2.46s.02.01.03.02c.03.04.08.08.12.11.02.01.03.03.05.03.06.03.14.05.21.05h3.32s.06-.01.1-.02v2.45c0,.28.22.5.5.5h5.87c.28,0,.5-.22.5-.5v-5.87c0-.28-.22-.5-.5-.5h-5.87c-.28,0-.5.22-.5.5v2.45s-.06-.02-.1-.02h-3.06l-1.99-2.84,2.08-5.95h2.96s.06-.01.1-.02v2.45c0,.28.22.5.5.5ZM22.84,2.78h4.87v4.87h-4.87V2.78ZM7.16,7.65H2.29V2.78h4.87v4.87ZM7.16,17.43H2.29v-4.87h4.87v4.87ZM7.16,27.22H2.29v-4.87h4.87v4.87ZM22.84,22.35h4.87v4.87h-4.87v-4.87ZM22.84,12.57h4.87v4.87h-4.87v-4.87Z"/></svg>