<?xml version="1.0" encoding="UTF-8"?><svg id="a" xmlns="http://www.w3.org/2000/svg" height="30" width="30" viewBox="0 0 30 30"><defs><style>.b{fill:#fff;}</style></defs><path class="b" d="M24.32,11.34c-.2-.2-.51-.2-.71,0s-.2.51,0,.71l2.45,2.45h-5.86l-7.41-6.48c-.09-.08-.21-.12-.33-.12H2.74c-.28,0-.5.22-.5.5s.22.5.5.5h9.54l6.98,6.1-6.98,6.1H2.74c-.28,0-.5.22-.5.5s.22.5.5.5h9.73c.12,0,.24-.04.33-.12l7.41-6.48h5.86l-2.45,2.45c-.2.2-.2.51,0,.71.1.1.23.15.35.15s.26-.05.35-.15l3.3-3.3c.2-.2.2-.51,0-.71l-3.3-3.3Z"/></svg>