<?xml version="1.0" encoding="UTF-8"?><svg id="a" xmlns="http://www.w3.org/2000/svg" height="30" width="30" viewBox="0 0 30 30"><defs><style>.b{fill:#fff;}</style></defs><circle class="b" cx="11.54" cy="15" r="1.1"/><path class="b" d="M15,13.9c-.61,0-1.1.49-1.1,1.1s.49,1.1,1.1,1.1,1.1-.49,1.1-1.1-.49-1.1-1.1-1.1Z"/><path class="b" d="M19.57,15c0-.61-.49-1.1-1.1-1.1s-1.1.49-1.1,1.1.49,1.1,1.1,1.1,1.1-.49,1.1-1.1Z"/><path class="b" d="M24.32,15v-.5s0,0,0,0h0c-.97.02-1.64-.19-2.01-.61-.48-.54-.38-1.41-.27-2.32.12-1.04.26-2.23-.52-3.11-.57-.64-1.48-.98-2.77-.94v1c1,0,1.65.19,2.02.61.48.54.38,1.41.28,2.33-.12,1.04-.26,2.23.52,3.11.15.17.34.32.54.44-.2.13-.39.27-.54.45-.78.88-.64,2.06-.52,3.11.11.92.21,1.78-.28,2.33-.37.42-1.02.63-2.01.61v1s.05,0,.08,0c1.22,0,2.12-.32,2.68-.94.78-.88.64-2.06.52-3.11-.11-.92-.21-1.78.27-2.32.37-.42,1.05-.62,2.01-.61,0,0,0,0,.01,0v-.5Z"/><path class="b" d="M9.24,20.87c-.48-.54-.38-1.41-.28-2.33.12-1.04.26-2.23-.52-3.1-.15-.17-.34-.32-.54-.45.2-.13.39-.27.54-.44.78-.88.64-2.06.52-3.11-.11-.92-.21-1.78.28-2.33.37-.42,1.03-.61,2.01-.61v-1c-1.28-.03-2.18.3-2.76.94-.78.88-.64,2.06-.52,3.11.11.92.21,1.78-.27,2.32-.37.42-1.02.62-2.01.61h0s0,0-.01,0v.5s0,.5,0,.5c0,0,0,0,.01,0,.98-.02,1.64.19,2.01.61.48.54.38,1.41.27,2.32-.12,1.04-.26,2.23.52,3.11.56.63,1.46.94,2.68.94.03,0,.06,0,.09,0v-1c-1,.01-1.65-.19-2.02-.61Z"/><path class="b" d="M15,1C7.28,1,1,7.28,1,15s6.28,14,14,14,14-6.28,14-14S22.72,1,15,1ZM15,28c-7.17,0-13-5.83-13-13S7.83,2,15,2s13,5.83,13,13-5.83,13-13,13Z"/></svg>