<?xml version="1.0" encoding="UTF-8"?><svg id="a" xmlns="http://www.w3.org/2000/svg" height="30" width="30" viewBox="0 0 30 30"><defs><style>.b{fill:#fff;}</style></defs><path class="b" d="M26.78,12.66l-.39-.11c-.67-.19-1.33-.39-2.01-.58-.15-.5-.35-.99-.6-1.46.41-.74.82-1.48,1.22-2.23.31-.57.24-1.1-.22-1.55-.49-.5-.99-.99-1.49-1.49-.51-.51-1.01-.57-1.65-.22l-.56.31c-.53.29-1.07.59-1.6.89-.45-.24-.94-.44-1.46-.6-.17-.59-.34-1.18-.51-1.77l-.19-.65c-.19-.65-.59-.95-1.26-.96h-2.15c-.66,0-1.07.31-1.25.94l-.14.49c-.19.64-.38,1.29-.56,1.94-.5.15-.99.35-1.46.6-.48-.27-.96-.53-1.44-.79l-.78-.43c-.18-.1-.39-.2-.64-.2,0,0-.03,0-.03,0-.49,0-.8.31-.9.41l-1.5,1.5c-.46.47-.54,1-.22,1.57l.29.52c.31.56.62,1.13.94,1.69-.26.49-.45.97-.6,1.46-.66.19-1.32.38-1.98.57l-.44.13c-.66.19-.97.6-.97,1.28v2.1c0,.7.3,1.1.98,1.3l.41.12c.66.19,1.33.39,2,.57.17.54.37,1.01.6,1.46-.41.74-.82,1.48-1.23,2.22-.31.57-.24,1.09.22,1.55l1.45,1.45c.56.56,1.02.62,1.7.24l.57-.31c.52-.29,1.05-.57,1.57-.87.47.25.96.45,1.46.6.19.68.39,1.35.58,2.03l.12.4c.19.64.6.95,1.26.96h2.08c.74,0,1.13-.3,1.34-1.02l.2-.68c.16-.56.32-1.12.48-1.69.53-.17,1.01-.36,1.46-.6.59.33,1.18.65,1.77.98l.43.24c.61.33,1.11.27,1.61-.23.46-.46.92-.92,1.38-1.38l.11-.11c.47-.47.54-.99.22-1.57l-.23-.41c-.33-.6-.66-1.2-.99-1.8.25-.47.45-.96.6-1.46.69-.2,1.39-.4,2.08-.6l.34-.1c.66-.19.97-.6.97-1.28v-2.08c0-.72-.29-1.12-.98-1.32ZM26.76,16.05c0,.24-.02.26-.25.32l-.34.1c-.71.21-1.42.41-2.13.61-.31.09-.52.29-.61.6-.14.48-.34.95-.58,1.41-.15.27-.15.55,0,.83.35.62.69,1.24,1.03,1.86l.23.41c.11.19.1.23-.05.38l-.11.11c-.46.46-.92.92-1.38,1.38-.19.19-.2.18-.42.06l-.43-.24c-.61-.33-1.21-.67-1.82-1.01-.28-.16-.57-.16-.85,0-.41.23-.87.42-1.38.57-.31.09-.51.3-.6.6-.16.58-.33,1.16-.5,1.74l-.2.68q-.08.29-.38.29h-2.08c-.22,0-.24,0-.31-.23l-.12-.4c-.2-.69-.4-1.38-.59-2.07-.09-.32-.3-.53-.61-.62-.47-.14-.94-.33-1.38-.57-.14-.07-.28-.11-.41-.11-.15,0-.29.04-.44.12-.54.3-1.08.6-1.62.9l-.57.31q-.28.16-.51-.08l-1.45-1.45c-.14-.14-.15-.19-.05-.37.42-.76.83-1.51,1.25-2.27.16-.29.16-.57,0-.85-.23-.42-.42-.88-.58-1.41-.09-.3-.29-.49-.59-.58-.69-.19-1.37-.39-2.06-.59l-.41-.12c-.25-.07-.26-.08-.26-.34v-2.1c0-.23,0-.25.25-.32l.44-.13c.67-.19,1.34-.39,2.01-.58.33-.09.54-.3.64-.63.13-.45.32-.9.57-1.37.15-.29.15-.57,0-.84-.33-.58-.65-1.16-.97-1.74l-.29-.52c-.1-.19-.1-.23.06-.39l1.5-1.5c.12-.12.17-.12.2-.12,0,0,.02,0,.02,0,.05.02.13.05.16.07l.78.43c.5.27,1,.55,1.49.82.28.16.56.16.83.01.45-.24.92-.44,1.4-.58.31-.09.51-.3.6-.61.19-.67.38-1.33.57-2l.14-.49c.06-.2.08-.22.29-.22h2.15c.22,0,.23,0,.3.24l.19.65c.18.61.36,1.22.53,1.84.08.3.28.5.58.59.51.16.99.35,1.43.59.26.14.54.14.81-.01.55-.31,1.11-.62,1.67-.92l.56-.31c.26-.14.27-.13.46.05.5.49.99.99,1.48,1.48.13.13.15.18.05.37-.42.77-.84,1.53-1.26,2.29-.15.27-.15.54-.01.81.24.45.44.92.58,1.4.09.32.3.52.62.61.69.19,1.37.39,2.06.59l.39.11c.25.07.26.08.26.36v2.08Z"/><path class="b" d="M15.01,9.31h0c-3.13,0-5.69,2.54-5.7,5.67,0,1.52.59,2.95,1.66,4.03,1.08,1.08,2.51,1.68,4.02,1.68h0c3.13,0,5.69-2.55,5.69-5.69,0-1.52-.59-2.94-1.67-4.02-1.07-1.08-2.5-1.67-4.01-1.67ZM15,19.69h0c-1.25,0-2.43-.49-3.31-1.38-.89-.89-1.38-2.07-1.37-3.32,0-2.58,2.12-4.67,4.7-4.67h0c1.24,0,2.42.49,3.3,1.38.89.89,1.37,2.06,1.37,3.31,0,2.58-2.1,4.69-4.69,4.69Z"/></svg>