<?xml version="1.0" encoding="UTF-8"?><svg id="a" xmlns="http://www.w3.org/2000/svg" height="30" width="30" viewBox="0 0 30 30"><defs><style>.b{fill:#fff;}</style></defs><path class="b" d="M24.21,13.95c-.09-.14-.25-.23-.42-.23H6.21c-.17,0-.33.09-.42.23l-3.1,4.8c-.1.15-.11.35-.02.51.09.16.26.26.44.26h2.6v8.15c0,.28.22.5.5.5h17.59c.28,0,.5-.22.5-.5v-8.15h2.6c.18,0,.35-.1.44-.26.09-.16.08-.36-.02-.51l-3.1-4.8ZM6.48,14.72h7.08l-2.46,3.8h-7.08l2.46-3.8ZM6.71,19.52h4.67c.17,0,.33-.09.42-.23l2.7-4.18v12.05h-7.79v-7.65ZM23.29,27.17h-7.79v-12.06l2.7,4.18c.09.14.25.23.42.23h4.67v7.65ZM23.79,18.52h-4.9l-2.46-3.8h7.08l2.46,3.8h-2.19Z"/><path class="b" d="M10.34,8h2.6v3.64c0,.28.22.5.5.5.04,0,.08-.01.11-.02.04,0,.07.02.11.02h2.62s.09-.01.13-.03c.04.01.08.03.13.03.28,0,.5-.22.5-.5v-3.64h2.6c.2,0,.38-.12.46-.3.08-.18.05-.39-.08-.54L15.37,1.99s-.01,0-.02-.02c0,0,0-.02-.02-.02-.02-.02-.04-.02-.06-.04-.03-.02-.05-.04-.08-.05-.03-.01-.06-.02-.09-.02-.03,0-.07-.01-.1-.01-.03,0-.06,0-.08.01-.04,0-.07.01-.1.03-.03.01-.05.03-.08.05-.02.01-.05.02-.07.04,0,0,0,.02-.02.02,0,0-.01,0-.02.02l-4.66,5.17c-.13.15-.17.36-.08.54.08.18.26.3.46.3ZM15,3.07l3.53,3.92h-1.98c-.28,0-.5.22-.5.5v3.64h-2.1v-3.64c0-.28-.22-.5-.5-.5h-1.98l3.53-3.92Z"/></svg>