<?xml version="1.0" encoding="UTF-8"?><svg id="a" xmlns="http://www.w3.org/2000/svg" height="30" width="30" viewBox="0 0 30 30"><defs><style>.b{fill:#fff;}</style></defs><path class="b" d="M27.49,9.87c-.25-.12-.55-.02-.67.22l-1.23,2.45c-1.14-4.46-4.96-7.89-9.59-8.38-5.31-.58-10.3,2.75-11.85,7.9-.08.26.07.54.33.62.27.08.54-.07.62-.33,1.42-4.69,5.95-7.71,10.79-7.19,4.36.47,7.94,3.79,8.84,8.05l-2.9-1.45c-.25-.12-.55-.02-.67.22-.12.25-.02.55.22.67l3.77,1.89s.01,0,.02,0c.06.03.13.05.2.05.02,0,.04,0,.06,0,.07,0,.14-.03.2-.07,0,0,.01-.01.02-.02.06-.04.11-.1.15-.16,0-.01.02-.01.02-.03l1.89-3.77c.12-.25.02-.55-.22-.67Z"/><path class="b" d="M25.52,17.32c-.26-.08-.54.07-.62.33-1.42,4.69-5.96,7.7-10.79,7.19-4.36-.47-7.94-3.79-8.84-8.05l2.9,1.45c.07.04.15.05.22.05.18,0,.36-.1.45-.28.12-.25.02-.55-.22-.67l-3.77-1.89s-.02,0-.04,0c-.03-.01-.07-.02-.11-.03-.03,0-.06,0-.09,0-.02,0-.03,0-.04,0-.02,0-.03.01-.05.02-.03,0-.06.02-.09.03-.03.01-.06.03-.08.05-.02.02-.05.04-.07.06-.02.03-.05.05-.06.08,0,.01-.02.02-.03.04l-1.89,3.77c-.12.25-.02.55.22.67.07.04.15.05.22.05.18,0,.36-.1.45-.28l1.23-2.45c1.14,4.46,4.96,7.89,9.59,8.38.4.04.79.06,1.18.06,4.85,0,9.23-3.2,10.67-7.96.08-.26-.07-.54-.33-.62Z"/></svg>