<?xml version="1.0" encoding="UTF-8"?><svg id="a" xmlns="http://www.w3.org/2000/svg" height="30" width="30" viewBox="0 0 30 30"><defs><style>.b{fill:#fff;}</style></defs><path class="b" d="M6.51,27.76h16.98c.28,0,.5-.22.5-.5V4.62c0-.28-.22-.5-.5-.5h-5.16v-1.39c0-.28-.22-.5-.5-.5h-5.66c-.28,0-.5.22-.5.5v1.39h-5.16c-.28,0-.5.22-.5.5v22.64c0,.28.22.5.5.5ZM12.67,3.24h4.66v2.77h-4.66v-2.77ZM7.01,5.12h4.66v1.39c0,.28.22.5.5.5h5.66c.28,0,.5-.22.5-.5v-1.39h4.66v21.64H7.01V5.12Z"/><path class="b" d="M19.72,10.73h-5.66c-.28,0-.5.22-.5.5s.22.5.5.5h5.66c.28,0,.5-.22.5-.5s-.22-.5-.5-.5Z"/><path class="b" d="M19.72,18.27h-5.66c-.28,0-.5.22-.5.5s.22.5.5.5h5.66c.28,0,.5-.22.5-.5s-.22-.5-.5-.5Z"/><path class="b" d="M19.72,14.5h-5.66c-.28,0-.5.22-.5.5s.22.5.5.5h5.66c.28,0,.5-.22.5-.5s-.22-.5-.5-.5Z"/><path class="b" d="M19.72,22.05h-5.66c-.28,0-.5.22-.5.5s.22.5.5.5h5.66c.28,0,.5-.22.5-.5s-.22-.5-.5-.5Z"/><path class="b" d="M9.93,10.87c-.09.1-.15.22-.15.36,0,.06.02.13.04.19.03.06.06.11.11.16.09.09.22.15.35.15.14,0,.26-.06.36-.15.04-.05.08-.1.11-.16.02-.06.03-.13.03-.19,0-.14-.05-.27-.14-.36-.19-.18-.52-.18-.71,0Z"/><path class="b" d="M10.47,14.54c-.12-.05-.26-.05-.38,0-.06.02-.11.06-.16.11-.09.09-.15.22-.15.35s.06.26.15.35c.05.05.1.09.16.11.06.03.13.04.19.04.07,0,.13-.01.19-.04.07-.02.12-.06.17-.11.09-.09.14-.22.14-.35s-.05-.26-.14-.35c-.05-.05-.1-.09-.17-.11Z"/><path class="b" d="M10.64,18.42c-.05-.05-.1-.08-.17-.11-.12-.05-.25-.05-.38,0-.06.03-.11.06-.16.11s-.08.1-.11.16c-.02.06-.04.13-.04.19,0,.07.02.13.04.19.03.07.06.12.11.17.05.04.1.08.16.1.06.03.13.04.19.04.07,0,.13-.01.19-.04.07-.02.12-.06.17-.1.04-.05.08-.1.11-.17.02-.06.03-.12.03-.19,0-.06,0-.13-.03-.19-.03-.06-.07-.11-.11-.16Z"/><path class="b" d="M10.64,22.19c-.19-.18-.53-.18-.71,0-.09.1-.15.22-.15.36,0,.13.06.26.15.35.05.05.1.08.16.11.06.02.13.04.19.04.07,0,.13-.02.19-.04.07-.03.12-.06.17-.11.04-.05.08-.1.11-.16.02-.06.03-.13.03-.19,0-.07,0-.13-.03-.19-.03-.06-.07-.12-.11-.17Z"/></svg>