<?xml version="1.0" encoding="UTF-8"?><svg id="a" xmlns="http://www.w3.org/2000/svg" height="30" width="30" viewBox="0 0 30 30"><defs><style>.b{fill:#fff;}</style></defs><path class="b" d="M28.43,17.07c0-2.07-.8-4.01-2.27-5.47-1.34-1.34-3.1-2.12-4.97-2.24V3.62c0-.85-.69-1.53-1.53-1.53H3.1c-.85,0-1.53.69-1.53,1.53v23.79c0,.28.22.5.5.5h18.62c.28,0,.5-.22.5-.5v-2.63c1.88-.12,3.63-.9,4.97-2.24,1.46-1.46,2.27-3.41,2.27-5.47ZM3.1,3.09h16.55c.29,0,.53.24.53.53v1.57H2.57v-1.57c0-.29.24-.53.53-.53ZM20.19,26.91H2.57V6.19h17.62v3.15s-.1.01-.15.02c-.1,0-.21.02-.31.03-.14.02-.28.04-.42.06-.1.02-.21.04-.31.06-.13.03-.27.06-.4.1-.1.03-.2.06-.3.09-.13.04-.26.09-.39.14-.1.04-.19.07-.29.12-.13.06-.26.12-.38.18-.09.04-.18.09-.27.14-.13.07-.25.15-.38.23-.08.05-.16.1-.24.15-.13.09-.26.19-.39.29-.06.05-.13.1-.19.15-.19.16-.37.32-.55.5-1.46,1.46-2.27,3.41-2.27,5.47,0,.26.01.52.04.78,0,.09.03.17.04.26.02.17.04.33.08.5.02.1.05.2.07.3.04.14.07.29.11.43.03.1.07.2.11.3.05.13.09.27.15.4.04.1.09.2.14.3.06.12.11.25.18.37.05.1.11.19.17.29.07.11.13.23.21.34.06.09.13.18.2.28.08.11.15.21.23.31.07.09.15.17.22.26.09.1.17.19.26.29.08.08.16.16.24.24.09.09.19.18.29.26.09.07.18.14.27.21.1.08.21.16.31.23.09.07.19.13.28.19.11.07.22.14.33.2.1.06.2.11.3.16.12.06.23.12.36.17.1.05.21.09.32.13.12.05.25.1.38.14.11.04.22.07.33.1.13.04.26.07.39.1.11.03.22.05.34.07.14.03.27.05.41.06.11.01.23.03.34.04.05,0,.1.01.16.02v2.12ZM20.69,23.81c-3.72,0-6.74-3.02-6.74-6.74,0-1.8.7-3.49,1.97-4.77,1.27-1.27,2.97-1.97,4.77-1.97s3.49.7,4.77,1.97c1.27,1.27,1.97,2.97,1.97,4.77s-.7,3.49-1.97,4.77c-1.27,1.27-2.97,1.97-4.77,1.97Z"/><path class="b" d="M23.79,16.57h-2.6v-3.64c0-.28-.22-.5-.5-.5s-.5.22-.5.5v4.14c0,.28.22.5.5.5h3.1c.28,0,.5-.22.5-.5s-.22-.5-.5-.5Z"/><path class="b" d="M5.36,9.37c-.12-.05-.26-.05-.38,0-.06.02-.12.06-.16.1-.09.1-.15.23-.15.36s.06.26.15.35c.05.05.1.08.16.11.06.02.13.04.19.04.13,0,.26-.06.35-.15.1-.09.15-.22.15-.35s-.05-.26-.15-.36c-.04-.04-.1-.08-.16-.1Z"/><path class="b" d="M8.28,10.33h5.17c.28,0,.5-.22.5-.5s-.22-.5-.5-.5h-5.17c-.28,0-.5.22-.5.5s.22.5.5.5Z"/><path class="b" d="M5.36,13.5c-.12-.04-.26-.05-.38,0-.06.03-.12.06-.16.11-.09.1-.15.22-.15.35,0,.14.06.26.15.36.09.09.22.15.35.15s.26-.06.35-.15c.05-.05.09-.1.11-.16.03-.06.04-.13.04-.2,0-.13-.05-.26-.15-.35-.04-.04-.1-.08-.16-.11Z"/><path class="b" d="M8.28,14.47h3.1c.28,0,.5-.22.5-.5s-.22-.5-.5-.5h-3.1c-.28,0-.5.22-.5.5s.22.5.5.5Z"/><path class="b" d="M4.82,17.75c-.09.09-.15.22-.15.35,0,.07,0,.13.04.2.02.06.06.11.11.16.09.09.22.14.35.14.07,0,.13,0,.19-.04.06-.02.12-.06.16-.1.05-.05.09-.1.12-.16.02-.07.03-.13.03-.2,0-.13-.05-.26-.15-.35-.18-.19-.51-.19-.7,0Z"/><path class="b" d="M8.28,18.6h3.1c.28,0,.5-.22.5-.5s-.22-.5-.5-.5h-3.1c-.28,0-.5.22-.5.5s.22.5.5.5Z"/><path class="b" d="M4.82,21.89s-.09.1-.11.16c-.03.06-.04.13-.04.19,0,.13.05.26.15.35.09.1.22.15.35.15.07,0,.13-.01.19-.04.06-.02.12-.06.16-.11.1-.09.15-.21.15-.35,0-.13-.05-.26-.15-.35-.18-.19-.51-.19-.7,0Z"/><path class="b" d="M12.41,21.74h-4.14c-.28,0-.5.22-.5.5s.22.5.5.5h4.14c.28,0,.5-.22.5-.5s-.22-.5-.5-.5Z"/></svg>