<?xml version="1.0" encoding="UTF-8"?><svg id="a" xmlns="http://www.w3.org/2000/svg" height="30" width="30" viewBox="0 0 30 30"><defs><style>.b{fill:#fff;}</style></defs><path class="b" d="M6.59,18.66c-1.15.65-1.56,2.11-.91,3.26s2.11,1.56,3.26.91,1.56-2.11.91-3.26c-.16-.28-.36-.51-.6-.7l3.25-4.75c.16-.23.1-.54-.13-.7-.03-.02-.06-.02-.09-.04-.02-.01-.03-.03-.05-.04-.62-.39-1.14-.9-1.55-1.51-1.64-2.42-1-5.71,1.41-7.35,1.17-.79,2.58-1.08,3.97-.82,1.39.27,2.59,1.06,3.38,2.23.79,1.17,1.08,2.58.82,3.97-.04.2-.09.4-.15.59-.08.26.06.54.33.63.27.08.54-.06.63-.33.07-.23.13-.47.18-.7.32-1.65-.03-3.33-.97-4.72-1.95-2.87-5.87-3.62-8.74-1.68-2.87,1.95-3.62,5.87-1.68,8.74.42.62.95,1.12,1.55,1.55l-2.99,4.36s-.04.08-.05.12c-.58-.15-1.22-.09-1.78.23Z"/><path class="b" d="M26,15.74c-1.33-1.03-2.97-1.48-4.65-1.27-.74.09-1.44.32-2.1.66l-2.52-4.62s-.05-.07-.08-.1c.4-.45.63-1.04.61-1.69-.06-1.32-1.17-2.35-2.49-2.29-1.32.06-2.35,1.17-2.29,2.49.06,1.32,1.17,2.35,2.49,2.29.32-.01.62-.09.9-.22l2.76,5.05c.09.17.26.26.44.26.08,0,.16-.02.24-.06.03-.02.05-.04.07-.06.02,0,.04,0,.06-.02.63-.37,1.32-.61,2.05-.7,1.41-.17,2.79.2,3.91,1.07,1.12.87,1.83,2.12,2.01,3.52.37,2.9-1.69,5.55-4.59,5.91-1.39.18-2.79-.2-3.91-1.07-.16-.12-.31-.26-.46-.4-.2-.19-.51-.19-.71,0-.19.2-.19.51,0,.71.17.17.36.33.55.48,1.12.87,2.46,1.32,3.85,1.32.27,0,.53-.02.8-.05,1.67-.21,3.15-1.06,4.18-2.39,1.03-1.33,1.48-2.98,1.27-4.65-.21-1.67-1.06-3.15-2.39-4.18Z"/><path class="b" d="M19.41,21.22s.09-.01.13-.03c.2.56.62,1.05,1.2,1.34,1.19.58,2.62.09,3.2-1.1.58-1.19.09-2.62-1.1-3.2s-2.62-.09-3.2,1.1c-.14.29-.22.59-.23.89l-5.76.02c-.28,0-.5.23-.5.5,0,.03.01.06.02.09,0,.02-.01.04-.01.06.03.73-.09,1.45-.36,2.13-1.06,2.72-4.13,4.07-6.85,3.02-1.32-.51-2.36-1.51-2.93-2.8-.57-1.29-.6-2.73-.09-4.05s1.51-2.36,2.8-2.93c.19-.08.38-.15.57-.21.26-.08.41-.36.33-.63-.08-.26-.36-.41-.62-.33-.23.07-.46.16-.68.25-1.54.68-2.72,1.91-3.33,3.48-.61,1.57-.57,3.28.11,4.81.68,1.54,1.91,2.72,3.48,3.33.75.29,1.51.43,2.27.43,2.52,0,4.91-1.53,5.87-4.02.27-.7.41-1.42.42-2.15l5.26-.02Z"/></svg>