<?xml version="1.0" encoding="UTF-8"?><svg id="a" xmlns="http://www.w3.org/2000/svg" height="30" width="30" viewBox="0 0 30 30"><defs><style>.b{fill:#fff;}</style></defs><path class="b" d="M2.74,8.9h5.66c.28,0,.5-.22.5-.5V2.74c0-.28-.22-.5-.5-.5H2.74c-.28,0-.5.22-.5.5v5.66c0,.28.22.5.5.5ZM3.24,3.24h4.66v4.66H3.24V3.24Z"/><path class="b" d="M12.17,18.33h5.66c.28,0,.5-.22.5-.5v-5.66c0-.28-.22-.5-.5-.5h-5.66c-.28,0-.5.22-.5.5v5.66c0,.28.22.5.5.5ZM12.67,12.67h4.66v4.66h-4.66v-4.66Z"/><path class="b" d="M27.26,21.1h-5.66c-.28,0-.5.22-.5.5v5.66c0,.28.22.5.5.5h5.66c.28,0,.5-.22.5-.5v-5.66c0-.28-.22-.5-.5-.5ZM26.76,26.76h-4.66v-4.66h4.66v4.66Z"/><path class="b" d="M15.83,25.5c-.2.2-.2.51,0,.71.1.1.23.15.35.15s.26-.05.35-.15l1.42-1.42c.2-.2.2-.51,0-.71l-1.42-1.42c-.2-.2-.51-.2-.71,0s-.2.51,0,.71l.56.56H3.24v-8.43h5.16c.28,0,.5-.22.5-.5s-.22-.5-.5-.5H2.74c-.28,0-.5.22-.5.5,0,.09.03.16.07.24-.04.07-.07.15-.07.24v8.49c0,.09.03.16.07.24-.04.07-.07.15-.07.24,0,.28.22.5.5.5h13.65l-.56.56Z"/><path class="b" d="M27.26,5.07h-15.09c-.28,0-.5.22-.5.5s.22.5.5.5h14.59v8.43h-3.72l.56-.56c.2-.2.2-.51,0-.71s-.51-.2-.71,0l-1.42,1.42c-.2.2-.2.51,0,.71l1.42,1.42c.1.1.23.15.35.15s.26-.05.35-.15c.2-.2.2-.51,0-.71l-.56-.56h4c.07.03.14.05.21.05.28,0,.5-.22.5-.5V6.04c0-.09-.03-.16-.07-.24.04-.07.07-.15.07-.24,0-.28-.22-.5-.5-.5Z"/></svg>